<svg xmlns="http://www.w3.org/2000/svg" width="103.542" height="155.088" viewBox="0 0 103.542 155.088">
  <g id="Group_944" data-name="Group 944" transform="translate(-123.935 -2649.556)">
    <g id="Group_2" data-name="Group 2" transform="translate(227.477 2701.259) rotate(180)">
      <rect id="Rectangle_17" data-name="Rectangle 17" width="51" height="51" transform="translate(0.477 0.259)" fill="#7ff1e7"/>
      <path id="Path_1835" data-name="Path 1835" d="M51.754,0V51.7H0Z" transform="translate(0 0)" fill="#5827ed"/>
    </g>
    <g id="Group_8" data-name="Group 8" transform="translate(175.688 2752.856) rotate(180)">
      <path id="Path_1836" data-name="Path 1836" d="M0,0H51.754V51.754H0Z" transform="translate(0)"/>
      <path id="Path_1835-2" data-name="Path 1835" d="M51.754,0V51.7H0Z" transform="translate(0 0.051)" fill="#5827ed"/>
    </g>
    <g id="Group_836" data-name="Group 836" transform="translate(175.688 2752.89) rotate(90)">
      <path id="Path_1836-2" data-name="Path 1836" d="M0,0H51.754V51.754H0Z" transform="translate(0 0)"/>
      <path id="Path_1835-3" data-name="Path 1835" d="M51.754,0V51.7H0Z" transform="translate(0 0.051)" fill="#5827ed"/>
    </g>
    <g id="Group_839" data-name="Group 839" transform="translate(175.481 2701.188)">
      <rect id="Rectangle_17-2" data-name="Rectangle 17" width="51" height="52" transform="translate(0.519 -0.188)" fill="#7ff1e7"/>
      <path id="Path_1835-4" data-name="Path 1835" d="M51.754,0V51.7H0Z" transform="translate(0 0)" fill="#5827ed"/>
    </g>
  </g>
</svg>
