<svg xmlns="http://www.w3.org/2000/svg" width="119.796" height="99.894" viewBox="0 0 119.796 99.894">
  <g id="Group_908" data-name="Group 908" transform="translate(-6789.139 -3088.333)">
    <g id="Group_883" data-name="Group 883" transform="translate(6666 3062)">
      <path id="Path_3481" data-name="Path 3481" d="M130.17,96.864c-.024,2.219-1.615,3.366-3.558,2.561a6.236,6.236,0,0,1-3.473-5.469c.024-2.217,1.618-3.363,3.559-2.561A6.24,6.24,0,0,1,130.17,96.864Z" fill="#6301f7"/>
      <path id="Path_3482" data-name="Path 3482" d="M142.637,102.022c-.025,2.217-1.618,3.364-3.56,2.561a6.246,6.246,0,0,1-3.473-5.471c.024-2.218,1.617-3.365,3.559-2.56A6.246,6.246,0,0,1,142.637,102.022Z" fill="#6301f7"/>
      <path id="Path_3483" data-name="Path 3483" d="M155.1,107.177c-.024,2.218-1.616,3.365-3.558,2.562a6.238,6.238,0,0,1-3.472-5.469c.024-2.218,1.616-3.365,3.558-2.562A6.238,6.238,0,0,1,155.1,107.177Z" fill="#6301f7"/>
      <path id="Path_3484" data-name="Path 3484" d="M167.566,112.335c-.024,2.217-1.617,3.363-3.558,2.56a6.239,6.239,0,0,1-3.473-5.468c.024-2.219,1.616-3.366,3.559-2.563A6.243,6.243,0,0,1,167.566,112.335Z" fill="#6301f7"/>
      <path id="Path_3485" data-name="Path 3485" d="M180.031,117.491c-.024,2.219-1.617,3.364-3.56,2.561A6.235,6.235,0,0,1,173,114.583c.023-2.219,1.616-3.365,3.558-2.563A6.24,6.24,0,0,1,180.031,117.491Z" fill="#6301f7"/>
      <path id="Path_3486" data-name="Path 3486" d="M130.3,84.817c-.024,2.219-1.616,3.366-3.558,2.562a6.246,6.246,0,0,1-3.474-5.47c.025-2.218,1.618-3.365,3.56-2.562A6.244,6.244,0,0,1,130.3,84.817Z" fill="#6301f7"/>
      <path id="Path_3487" data-name="Path 3487" d="M142.765,89.974c-.024,2.218-1.618,3.363-3.56,2.56a6.242,6.242,0,0,1-3.473-5.469c.025-2.216,1.618-3.365,3.559-2.561A6.244,6.244,0,0,1,142.765,89.974Z" fill="#6301f7"/>
      <path id="Path_3488" data-name="Path 3488" d="M155.229,95.13c-.024,2.217-1.616,3.365-3.559,2.562a6.243,6.243,0,0,1-3.472-5.47c.025-2.217,1.616-3.365,3.559-2.561A6.24,6.24,0,0,1,155.229,95.13Z" fill="#6301f7"/>
      <path id="Path_3489" data-name="Path 3489" d="M167.694,100.288c-.024,2.217-1.616,3.363-3.557,2.561a6.239,6.239,0,0,1-3.474-5.471c.025-2.217,1.617-3.365,3.56-2.561A6.238,6.238,0,0,1,167.694,100.288Z" fill="#6301f7"/>
      <path id="Path_3490" data-name="Path 3490" d="M180.159,105.444c-.022,2.217-1.616,3.364-3.559,2.561a6.24,6.24,0,0,1-3.472-5.471c.024-2.217,1.617-3.363,3.558-2.56A6.236,6.236,0,0,1,180.159,105.444Z" fill="#6301f7"/>
      <path id="Path_3491" data-name="Path 3491" d="M130.42,73.5c-.024,2.217-1.615,3.363-3.558,2.56a6.236,6.236,0,0,1-3.473-5.468c.024-2.219,1.618-3.366,3.559-2.562A6.24,6.24,0,0,1,130.42,73.5Z" fill="#6301f7"/>
      <path id="Path_3492" data-name="Path 3492" d="M142.887,78.657c-.025,2.218-1.62,3.365-3.56,2.561a6.239,6.239,0,0,1-3.473-5.469c.024-2.219,1.617-3.365,3.559-2.56A6.241,6.241,0,0,1,142.887,78.657Z" fill="#6301f7"/>
      <path id="Path_3493" data-name="Path 3493" d="M155.35,83.814c-.024,2.218-1.616,3.365-3.558,2.561a6.239,6.239,0,0,1-3.472-5.47c.024-2.216,1.615-3.363,3.558-2.56A6.237,6.237,0,0,1,155.35,83.814Z" fill="#6301f7"/>
      <path id="Path_3494" data-name="Path 3494" d="M167.815,88.97c-.023,2.219-1.616,3.365-3.557,2.562a6.245,6.245,0,0,1-3.474-5.471c.025-2.217,1.616-3.363,3.56-2.56A6.237,6.237,0,0,1,167.815,88.97Z" fill="#6301f7"/>
      <path id="Path_3495" data-name="Path 3495" d="M180.281,94.128c-.024,2.217-1.617,3.363-3.56,2.558a6.234,6.234,0,0,1-3.471-5.468c.023-2.217,1.616-3.363,3.558-2.561A6.24,6.24,0,0,1,180.281,94.128Z" fill="#6301f7"/>
      <path id="Path_3496" data-name="Path 3496" d="M130.55,61.453c-.025,2.218-1.617,3.365-3.559,2.562a6.237,6.237,0,0,1-3.472-5.471c.023-2.217,1.618-3.363,3.558-2.561A6.241,6.241,0,0,1,130.55,61.453Z" fill="#6301f7"/>
      <path id="Path_3497" data-name="Path 3497" d="M143.015,66.61c-.024,2.217-1.618,3.364-3.56,2.561a6.24,6.24,0,0,1-3.472-5.471c.024-2.217,1.617-3.363,3.559-2.56A6.242,6.242,0,0,1,143.015,66.61Z" fill="#6301f7"/>
      <path id="Path_3498" data-name="Path 3498" d="M155.479,71.767c-.024,2.216-1.617,3.365-3.559,2.56a6.242,6.242,0,0,1-3.472-5.47c.025-2.217,1.617-3.364,3.559-2.561A6.245,6.245,0,0,1,155.479,71.767Z" fill="#6301f7"/>
      <path id="Path_3499" data-name="Path 3499" d="M167.944,76.923c-.024,2.217-1.616,3.365-3.557,2.562a6.242,6.242,0,0,1-3.474-5.47c.025-2.219,1.617-3.366,3.558-2.562A6.238,6.238,0,0,1,167.944,76.923Z" fill="#6301f7"/>
      <path id="Path_3500" data-name="Path 3500" d="M180.409,82.079c-.022,2.218-1.617,3.365-3.559,2.563a6.244,6.244,0,0,1-3.472-5.471c.024-2.218,1.617-3.365,3.557-2.561A6.234,6.234,0,0,1,180.409,82.079Z" fill="#6301f7"/>
      <path id="Path_3501" data-name="Path 3501" d="M130.666,50.5c-.024,2.219-1.616,3.365-3.558,2.563a6.241,6.241,0,0,1-3.473-5.471c.024-2.217,1.618-3.364,3.559-2.561A6.236,6.236,0,0,1,130.666,50.5Z" fill="#6301f7"/>
      <path id="Path_3502" data-name="Path 3502" d="M143.132,55.657c-.024,2.219-1.617,3.365-3.559,2.563a6.241,6.241,0,0,1-3.473-5.471c.024-2.217,1.617-3.363,3.559-2.56A6.242,6.242,0,0,1,143.132,55.657Z" fill="#6301f7"/>
      <path id="Path_3503" data-name="Path 3503" d="M155.6,60.814c-.025,2.218-1.618,3.365-3.56,2.562a6.242,6.242,0,0,1-3.472-5.469c.025-2.218,1.617-3.365,3.559-2.562A6.243,6.243,0,0,1,155.6,60.814Z" fill="#6301f7"/>
      <path id="Path_3504" data-name="Path 3504" d="M168.061,65.972c-.024,2.217-1.616,3.365-3.557,2.56a6.239,6.239,0,0,1-3.474-5.469c.025-2.218,1.617-3.365,3.56-2.561A6.237,6.237,0,0,1,168.061,65.972Z" fill="#6301f7"/>
      <path id="Path_3505" data-name="Path 3505" d="M180.526,71.128c-.024,2.219-1.616,3.365-3.557,2.561a6.239,6.239,0,0,1-3.474-5.469c.024-2.219,1.617-3.365,3.56-2.563A6.242,6.242,0,0,1,180.526,71.128Z" fill="#6301f7"/>
      <path id="Path_3506" data-name="Path 3506" d="M130.787,39.185c-.023,2.218-1.617,3.363-3.558,2.56a6.238,6.238,0,0,1-3.473-5.469c.024-2.218,1.618-3.365,3.559-2.562A6.243,6.243,0,0,1,130.787,39.185Z" fill="#6301f7"/>
      <path id="Path_3507" data-name="Path 3507" d="M143.253,44.341c-.024,2.219-1.616,3.365-3.56,2.56a6.236,6.236,0,0,1-3.472-5.468c.024-2.218,1.617-3.366,3.559-2.562A6.245,6.245,0,0,1,143.253,44.341Z" fill="#6301f7"/>
      <path id="Path_3508" data-name="Path 3508" d="M155.719,49.5c-.026,2.219-1.619,3.365-3.56,2.562a6.241,6.241,0,0,1-3.473-5.47c.025-2.217,1.617-3.364,3.559-2.561A6.245,6.245,0,0,1,155.719,49.5Z" fill="#6301f7"/>
      <path id="Path_3509" data-name="Path 3509" d="M168.183,54.654c-.024,2.218-1.617,3.365-3.559,2.562a6.244,6.244,0,0,1-3.473-5.471c.024-2.217,1.616-3.363,3.559-2.56A6.24,6.24,0,0,1,168.183,54.654Z" fill="#6301f7"/>
      <path id="Path_3510" data-name="Path 3510" d="M180.647,59.811c-.023,2.219-1.616,3.364-3.559,2.561a6.244,6.244,0,0,1-3.472-5.471c.023-2.216,1.616-3.363,3.559-2.56A6.24,6.24,0,0,1,180.647,59.811Z" fill="#6301f7"/>
    </g>
    <g id="Group_882" data-name="Group 882" transform="translate(6666 3062)">
      <path id="Path_3478" data-name="Path 3478" d="M242.934,98.251l-60.542,27.977V54.31l60.542-27.977Z"/>
    </g>
  </g>
</svg>
