<svg xmlns="http://www.w3.org/2000/svg" width="240" height="256" viewBox="0 0 240 256">
  <g id="Group_1" data-name="Group 1" transform="translate(182.976 75.044) rotate(90)">
    <path id="Intersection_1" data-name="Intersection 1" d="M.346,256Q0,249.077,0,242.13a276.009,276.009,0,0,1,4.33-48.8,265.512,265.512,0,0,1,12.419-45.45A254.092,254.092,0,0,1,36.4,106.753,239.909,239.909,0,0,1,62.427,70.918,223.264,223.264,0,0,1,93.971,41.352a206.618,206.618,0,0,1,36.2-22.325A193.964,193.964,0,0,1,170.184,4.92,190,190,0,0,1,240,1.908V116.645a110.4,110.4,0,0,0-39.26,1.928,112.7,112.7,0,0,0-23.245,8.2,120.021,120.021,0,0,0-21.036,12.971,129.7,129.7,0,0,0-18.328,17.179,139.437,139.437,0,0,0-15.121,20.82,147.659,147.659,0,0,0-11.418,23.9,154.231,154.231,0,0,0-7.216,26.407A160.318,160.318,0,0,0,101.861,256Z" transform="translate(180.956 -57.024) rotate(90)" fill="#7ff1e7"/>
  </g>
</svg>
