<svg xmlns="http://www.w3.org/2000/svg" width="160.065" height="169.168" viewBox="0 0 160.065 169.168">
  <g id="Group_884" data-name="Group 884" transform="translate(-46.935 -1918.121)">
    <path id="Path_3572" data-name="Path 3572" d="M383.29,192.8l-79.723,36.84v-94.7L383.29,98.1Z" transform="translate(-176.79 1856.864)" fill="#e83276" stroke="#f22e76" stroke-miterlimit="10" stroke-width="1"/>
    <path id="Path_3573" data-name="Path 3573" d="M255.629,167.642c-.029,2.585-1.883,3.918-4.143,2.984a7.268,7.268,0,0,1-4.045-6.371c.029-2.58,1.883-3.918,4.144-2.981A7.266,7.266,0,0,1,255.629,167.642Z" transform="translate(-194.572 1876.785)" fill="#6301f7"/>
    <path id="Path_3574" data-name="Path 3574" d="M266.652,172.2c-.029,2.582-1.883,3.916-4.147,2.98a7.258,7.258,0,0,1-4.041-6.368c.026-2.582,1.883-3.919,4.143-2.983A7.273,7.273,0,0,1,266.652,172.2Z" transform="translate(-191.08 1878.23)" fill="#6301f7"/>
    <path id="Path_3575" data-name="Path 3575" d="M277.673,176.761c-.026,2.585-1.883,3.918-4.143,2.984a7.265,7.265,0,0,1-4.044-6.368c.029-2.585,1.883-3.918,4.144-2.984A7.265,7.265,0,0,1,277.673,176.761Z" transform="translate(-187.588 1879.675)" fill="#6301f7"/>
    <path id="Path_3576" data-name="Path 3576" d="M288.7,181.322c-.028,2.582-1.883,3.916-4.144,2.983a7.269,7.269,0,0,1-4.043-6.368c.026-2.584,1.882-3.919,4.141-2.983A7.264,7.264,0,0,1,288.7,181.322Z" transform="translate(-184.095 1881.12)" fill="#6301f7"/>
    <path id="Path_3577" data-name="Path 3577" d="M299.718,185.882c-.028,2.582-1.883,3.918-4.145,2.981a7.271,7.271,0,0,1-4.043-6.371c.03-2.58,1.883-3.915,4.145-2.981A7.276,7.276,0,0,1,299.718,185.882Z" transform="translate(-180.603 1882.564)" fill="#6301f7"/>
    <path id="Path_3578" data-name="Path 3578" d="M255.741,156.99c-.025,2.582-1.879,3.916-4.14,2.98a7.261,7.261,0,0,1-4.045-6.367c.028-2.584,1.882-3.918,4.143-2.984A7.264,7.264,0,0,1,255.741,156.99Z" transform="translate(-194.536 1873.41)" fill="#6301f7"/>
    <path id="Path_3579" data-name="Path 3579" d="M266.766,161.551c-.029,2.582-1.884,3.915-4.145,2.981a7.268,7.268,0,0,1-4.044-6.368c.029-2.585,1.884-3.92,4.145-2.984A7.272,7.272,0,0,1,266.766,161.551Z" transform="translate(-191.044 1874.855)" fill="#6301f7"/>
    <path id="Path_3580" data-name="Path 3580" d="M277.785,166.109c-.026,2.582-1.882,3.918-4.143,2.983a7.265,7.265,0,0,1-4.043-6.37c.028-2.58,1.882-3.918,4.144-2.984A7.265,7.265,0,0,1,277.785,166.109Z" transform="translate(-187.552 1876.299)" fill="#6301f7"/>
    <path id="Path_3581" data-name="Path 3581" d="M288.81,170.67c-.029,2.582-1.883,3.918-4.144,2.981a7.272,7.272,0,0,1-4.045-6.368c.03-2.582,1.886-3.919,4.145-2.984A7.276,7.276,0,0,1,288.81,170.67Z" transform="translate(-184.06 1877.744)" fill="#6301f7"/>
    <path id="Path_3582" data-name="Path 3582" d="M299.832,175.228c-.028,2.585-1.882,3.92-4.144,2.984a7.273,7.273,0,0,1-4.044-6.371c.028-2.582,1.883-3.918,4.144-2.984A7.273,7.273,0,0,1,299.832,175.228Z" transform="translate(-180.567 1879.188)" fill="#6301f7"/>
    <path id="Path_3583" data-name="Path 3583" d="M255.85,146.982c-.028,2.582-1.884,3.92-4.145,2.984a7.273,7.273,0,0,1-4.041-6.371c.026-2.582,1.884-3.918,4.143-2.981A7.269,7.269,0,0,1,255.85,146.982Z" transform="translate(-194.502 1870.24)" fill="#6301f7"/>
    <path id="Path_3584" data-name="Path 3584" d="M266.872,151.543c-.026,2.581-1.882,3.916-4.143,2.98a7.273,7.273,0,0,1-4.047-6.368c.029-2.582,1.884-3.916,4.145-2.981A7.259,7.259,0,0,1,266.872,151.543Z" transform="translate(-191.01 1871.684)" fill="#6301f7"/>
    <path id="Path_3585" data-name="Path 3585" d="M277.894,156.1c-.028,2.585-1.882,3.92-4.144,2.984a7.261,7.261,0,0,1-4.041-6.368c.028-2.585,1.882-3.92,4.143-2.984A7.267,7.267,0,0,1,277.894,156.1Z" transform="translate(-187.517 1873.129)" fill="#6301f7"/>
    <path id="Path_3586" data-name="Path 3586" d="M288.916,160.662c-.026,2.582-1.882,3.916-4.143,2.983a7.27,7.27,0,0,1-4.044-6.371c.028-2.582,1.883-3.916,4.144-2.98A7.255,7.255,0,0,1,288.916,160.662Z" transform="translate(-184.026 1874.574)" fill="#6301f7"/>
    <path id="Path_3587" data-name="Path 3587" d="M299.939,165.223c-.028,2.582-1.883,3.918-4.144,2.981a7.262,7.262,0,0,1-4.043-6.368c.025-2.585,1.883-3.918,4.143-2.984A7.27,7.27,0,0,1,299.939,165.223Z" transform="translate(-180.533 1876.018)" fill="#6301f7"/>
    <path id="Path_3588" data-name="Path 3588" d="M255.964,136.33c-.028,2.581-1.883,3.916-4.143,2.983a7.274,7.274,0,0,1-4.045-6.371c.029-2.582,1.882-3.916,4.145-2.981A7.265,7.265,0,0,1,255.964,136.33Z" transform="translate(-194.466 1866.865)" fill="#6301f7"/>
    <path id="Path_3589" data-name="Path 3589" d="M266.987,140.889c-.028,2.581-1.884,3.919-4.145,2.983a7.262,7.262,0,0,1-4.043-6.37c.026-2.581,1.883-3.919,4.143-2.983A7.27,7.27,0,0,1,266.987,140.889Z" transform="translate(-190.974 1868.309)" fill="#6301f7"/>
    <path id="Path_3590" data-name="Path 3590" d="M278.007,145.449c-.026,2.582-1.88,3.916-4.141,2.983a7.276,7.276,0,0,1-4.045-6.371c.032-2.582,1.883-3.916,4.147-2.98A7.264,7.264,0,0,1,278.007,145.449Z" transform="translate(-187.482 1869.754)" fill="#6301f7"/>
    <path id="Path_3591" data-name="Path 3591" d="M289.03,150.009c-.026,2.58-1.882,3.918-4.143,2.984a7.267,7.267,0,0,1-4.043-6.371c.026-2.582,1.882-3.918,4.143-2.984A7.267,7.267,0,0,1,289.03,150.009Z" transform="translate(-183.989 1871.198)" fill="#6301f7"/>
    <path id="Path_3592" data-name="Path 3592" d="M300.053,154.568c-.029,2.582-1.884,3.919-4.145,2.984a7.278,7.278,0,0,1-4.043-6.371c.029-2.582,1.883-3.918,4.144-2.981A7.266,7.266,0,0,1,300.053,154.568Z" transform="translate(-180.497 1872.643)" fill="#6301f7"/>
    <path id="Path_3593" data-name="Path 3593" d="M256.068,126.646c-.029,2.582-1.883,3.918-4.144,2.983a7.267,7.267,0,0,1-4.044-6.37c.026-2.582,1.883-3.918,4.144-2.984A7.275,7.275,0,0,1,256.068,126.646Z" transform="translate(-194.433 1863.796)" fill="#6301f7"/>
    <path id="Path_3594" data-name="Path 3594" d="M267.09,131.205c-.026,2.581-1.883,3.919-4.144,2.983a7.269,7.269,0,0,1-4.044-6.37c.026-2.584,1.883-3.918,4.144-2.981A7.266,7.266,0,0,1,267.09,131.205Z" transform="translate(-190.941 1865.241)" fill="#6301f7"/>
    <path id="Path_3595" data-name="Path 3595" d="M278.112,135.765c-.029,2.582-1.883,3.918-4.144,2.984a7.269,7.269,0,0,1-4.043-6.371c.028-2.582,1.882-3.918,4.141-2.983A7.263,7.263,0,0,1,278.112,135.765Z" transform="translate(-187.449 1866.686)" fill="#6301f7"/>
    <path id="Path_3596" data-name="Path 3596" d="M289.134,140.324c-.026,2.584-1.882,3.919-4.144,2.983a7.266,7.266,0,0,1-4.043-6.37c.029-2.584,1.883-3.916,4.144-2.981A7.269,7.269,0,0,1,289.134,140.324Z" transform="translate(-183.957 1868.13)" fill="#6301f7"/>
    <path id="Path_3597" data-name="Path 3597" d="M300.156,144.884c-.026,2.582-1.882,3.918-4.143,2.984a7.268,7.268,0,0,1-4.044-6.371c.028-2.582,1.882-3.918,4.143-2.983A7.265,7.265,0,0,1,300.156,144.884Z" transform="translate(-180.464 1869.575)" fill="#6301f7"/>
    <path id="Path_3598" data-name="Path 3598" d="M256.174,116.638c-.028,2.584-1.882,3.918-4.143,2.984a7.269,7.269,0,0,1-4.044-6.371c.028-2.582,1.883-3.918,4.144-2.981A7.257,7.257,0,0,1,256.174,116.638Z" transform="translate(-194.399 1860.626)" fill="#6301f7"/>
    <path id="Path_3599" data-name="Path 3599" d="M267.2,121.2c-.03,2.582-1.884,3.916-4.145,2.98a7.261,7.261,0,0,1-4.043-6.368c.026-2.582,1.882-3.918,4.143-2.983A7.274,7.274,0,0,1,267.2,121.2Z" transform="translate(-190.907 1862.07)" fill="#6301f7"/>
    <path id="Path_3600" data-name="Path 3600" d="M278.219,125.757c-.026,2.585-1.883,3.918-4.143,2.984a7.267,7.267,0,0,1-4.044-6.371c.03-2.581,1.882-3.918,4.144-2.981A7.267,7.267,0,0,1,278.219,125.757Z" transform="translate(-187.415 1863.515)" fill="#6301f7"/>
    <path id="Path_3601" data-name="Path 3601" d="M289.241,130.318c-.028,2.582-1.882,3.918-4.143,2.98a7.257,7.257,0,0,1-4.043-6.367c.026-2.582,1.882-3.918,4.143-2.983A7.265,7.265,0,0,1,289.241,130.318Z" transform="translate(-183.922 1864.96)" fill="#6301f7"/>
    <path id="Path_3602" data-name="Path 3602" d="M300.264,134.876c-.03,2.585-1.883,3.92-4.145,2.984a7.268,7.268,0,0,1-4.043-6.371c.028-2.58,1.883-3.916,4.144-2.981A7.273,7.273,0,0,1,300.264,134.876Z" transform="translate(-180.43 1866.404)" fill="#6301f7"/>
    <path id="Path_3603" data-name="Path 3603" d="M242.935,107.163,322.752,144,402.5,106.963,322.681,70.121Z" transform="translate(-196 1848)" fill="#48f5e8"/>
  </g>
</svg>
