<svg xmlns="http://www.w3.org/2000/svg" width="1030.979" height="129.742" viewBox="0 0 1030.979 129.742">
  <g id="Group_907" data-name="Group 907" transform="translate(-388.129 -3600.298)">
    <g id="Group_895" data-name="Group 895" transform="translate(-7067 1132)">
      <g id="Group_889" data-name="Group 889" transform="translate(7394 2198)">
        <g id="Group_854" data-name="Group 854">
          <path id="Path_3450" data-name="Path 3450" d="M236.679,373.839l6.347-6.5v-8.391l-21.494,21.877Z" fill="#6301f7"/>
          <path id="Path_3451" data-name="Path 3451" d="M209.75,386.259l33.275-33.832v-8.391L194.6,393.247Z" fill="#6301f7"/>
          <path id="Path_3452" data-name="Path 3452" d="M182.3,398.681l60.723-61.17v-8.387L182.3,390.7v7.977Z" fill="#6301f7"/>
          <path id="Path_3453" data-name="Path 3453" d="M182.3,375.792v8.389L243.025,322.6V314.21Z" fill="#6301f7"/>
          <path id="Path_3454" data-name="Path 3454" d="M182.3,360.878v8.389l60.723-61.582V299.3Z" fill="#6301f7"/>
          <path id="Path_3455" data-name="Path 3455" d="M216.647,311.1,182.3,345.964v8.389L231.8,304.11Z" fill="#6301f7"/>
          <path id="Path_3456" data-name="Path 3456" d="M189.717,323.518,182.3,331.05v8.391l22.563-22.908Z" fill="#6301f7"/>
        </g>
      </g>
      <g id="Group_890" data-name="Group 890" transform="translate(7394 2198)">
        <path id="Path_3474" data-name="Path 3474" d="M364.108,370.079l-60.542,27.977V326.138l60.542-27.977Z"/>
      </g>
      <g id="Group_891" data-name="Group 891" transform="translate(7394 2198)">
        <path id="Path_3475" data-name="Path 3475" d="M182.248,326.138l-60.614-27.977v71.916l60.614,27.979Z" fill="#e83276" stroke="#f22e76" stroke-miterlimit="10" stroke-width="1"/>
      </g>
      <g id="Group_892" data-name="Group 892" transform="translate(7394 2198)">
        <path id="Path_3476" data-name="Path 3476" d="M303.512,326.138,242.9,298.161v71.916l60.613,27.979Z" fill="#ffee3f"/>
      </g>
      <g id="Group_893" data-name="Group 893" transform="translate(7394 2198)">
        <path id="Path_3477" data-name="Path 3477" d="M61.129,326.138l60.541-27.977v71.916L61.129,398.056Z"/>
      </g>
      <g id="Group_894" data-name="Group 894" transform="translate(7333 2298)">
        <path id="Path_3480" data-name="Path 3480" d="M182.3,198.259l60.541,27.977,60.723-27.961L243.025,170.3Z" fill="#48f5e8"/>
      </g>
    </g>
    <g id="Group_897" data-name="Group 897" transform="translate(-6339 1132)">
      <g id="Group_889-2" data-name="Group 889" transform="translate(7394 2198)">
        <g id="Group_854-2" data-name="Group 854">
          <path id="Path_3450-2" data-name="Path 3450" d="M236.679,373.839l6.347-6.5v-8.391l-21.494,21.877Z" fill="#6301f7"/>
          <path id="Path_3451-2" data-name="Path 3451" d="M209.75,386.259l33.275-33.832v-8.391L194.6,393.247Z" fill="#6301f7"/>
          <path id="Path_3452-2" data-name="Path 3452" d="M182.3,398.681l60.723-61.17v-8.387L182.3,390.7v7.977Z" fill="#6301f7"/>
          <path id="Path_3453-2" data-name="Path 3453" d="M182.3,375.792v8.389L243.025,322.6V314.21Z" fill="#6301f7"/>
          <path id="Path_3454-2" data-name="Path 3454" d="M182.3,360.878v8.389l60.723-61.582V299.3Z" fill="#6301f7"/>
          <path id="Path_3455-2" data-name="Path 3455" d="M216.647,311.1,182.3,345.964v8.389L231.8,304.11Z" fill="#6301f7"/>
          <path id="Path_3456-2" data-name="Path 3456" d="M189.717,323.518,182.3,331.05v8.391l22.563-22.908Z" fill="#6301f7"/>
        </g>
      </g>
      <g id="Group_890-2" data-name="Group 890" transform="translate(7394 2198)">
        <path id="Path_3474-2" data-name="Path 3474" d="M364.108,370.079l-60.542,27.977V326.138l60.542-27.977Z"/>
      </g>
      <g id="Group_891-2" data-name="Group 891" transform="translate(7394 2198)">
        <path id="Path_3475-2" data-name="Path 3475" d="M182.248,326.138l-60.614-27.977v71.916l60.614,27.979Z" fill="#e83276" stroke="#f22e76" stroke-miterlimit="10" stroke-width="1"/>
      </g>
      <g id="Group_892-2" data-name="Group 892" transform="translate(7394 2198)">
        <path id="Path_3476-2" data-name="Path 3476" d="M303.512,326.138,242.9,298.161v71.916l60.613,27.979Z" fill="#ffee3f"/>
      </g>
      <g id="Group_893-2" data-name="Group 893" transform="translate(7394 2198)">
        <path id="Path_3477-2" data-name="Path 3477" d="M61.129,326.138l60.541-27.977v71.916L61.129,398.056Z"/>
      </g>
      <g id="Group_894-2" data-name="Group 894" transform="translate(7333 2298)">
        <path id="Path_3480-2" data-name="Path 3480" d="M182.3,198.259l60.541,27.977,60.723-27.961L243.025,170.3Z" fill="#48f5e8"/>
      </g>
    </g>
    <g id="Group_906" data-name="Group 906" transform="translate(95 613)">
      <g id="Group_898" data-name="Group 898" transform="translate(596 2918)">
        <path id="Path_3442" data-name="Path 3442" d="M121.779,170.282,61.055,198.259V126.341l60.725-27.977Z" fill="#f6a3ee"/>
        <g id="Group_852" data-name="Group 852">
          <path id="Path_3443" data-name="Path 3443" d="M115.433,173.235l6.347-6.5v-8.389l-21.494,21.875Z" fill="#f6a3ee"/>
          <path id="Path_3444" data-name="Path 3444" d="M88.5,185.655l33.275-33.832v-8.391L73.354,192.643Z" fill="#f6a3ee"/>
          <path id="Path_3445" data-name="Path 3445" d="M61.055,198.077l60.725-61.168V128.52L61.055,190.1v7.977Z" fill="#f6a3ee"/>
          <path id="Path_3446" data-name="Path 3446" d="M61.055,175.189v8.389L121.779,122v-8.387Z" fill="#f6a3ee"/>
          <path id="Path_3447" data-name="Path 3447" d="M61.055,160.274v8.389l60.725-61.58V98.694Z" fill="#f6a3ee"/>
          <path id="Path_3448" data-name="Path 3448" d="M95.4,110.5,61.055,145.36v8.391l49.5-50.244Z" fill="#f6a3ee"/>
          <path id="Path_3449" data-name="Path 3449" d="M68.471,122.915l-7.416,7.533v8.391l22.566-22.91Z" fill="#f6a3ee"/>
        </g>
      </g>
      <g id="Group_899" data-name="Group 899" transform="translate(596 2918)">
        <g id="Group_856" data-name="Group 856">
          <path id="Path_3457" data-name="Path 3457" d="M370.4,171.876l-6.347-6.5v-8.391l21.5,21.877Z" fill="#6301f7"/>
          <path id="Path_3458" data-name="Path 3458" d="M397.329,184.3l-33.276-33.832v-8.391l48.425,49.211Z" fill="#6301f7"/>
          <path id="Path_3459" data-name="Path 3459" d="M424.776,196.718l-60.724-61.17v-8.387l60.724,61.58v7.977Z" fill="#6301f7"/>
          <path id="Path_3460" data-name="Path 3460" d="M424.776,173.829v8.389l-60.724-61.584v-8.387Z" fill="#6301f7"/>
          <path id="Path_3461" data-name="Path 3461" d="M424.776,158.915V167.3l-60.724-61.582V97.333Z" fill="#6301f7"/>
          <path id="Path_3462" data-name="Path 3462" d="M390.431,109.134,424.776,144v8.389l-49.5-50.242Z" fill="#6301f7"/>
          <path id="Path_3463" data-name="Path 3463" d="M417.361,121.556l7.415,7.531v8.391l-22.564-22.908Z" fill="#6301f7"/>
        </g>
      </g>
      <g id="Group_900" data-name="Group 900" transform="translate(596 2918)">
        <path id="Path_3464" data-name="Path 3464" d="M121.779,170.282l60.613,27.977V126.341L121.779,98.364Z" fill="#e83276" stroke="#f22e76" stroke-miterlimit="10" stroke-width="1"/>
      </g>
      <g id="Group_901" data-name="Group 901" transform="translate(596 2918)">
        <path id="Path_3465" data-name="Path 3465" d="M.442,170.282l60.612,27.977V126.341L.442,98.364Z"/>
      </g>
      <g id="Group_902" data-name="Group 902" transform="translate(596 2918)">
        <path id="Path_3469" data-name="Path 3469" d="M242.934,170.282l-60.542,27.977V126.341l60.542-27.977Z" fill="#ffee3f"/>
      </g>
      <g id="Group_903" data-name="Group 903" transform="translate(596 2918)">
        <path id="Path_3473" data-name="Path 3473" d="M364.108,170.017l-60.542,27.977V126.076L364.108,98.1Z" fill="#e83276" stroke="#f22e76" stroke-miterlimit="10" stroke-width="1"/>
      </g>
      <g id="Group_904" data-name="Group 904" transform="translate(596 2918)">
        <path id="Path_3511" data-name="Path 3511" d="M253.659,166.038c-.022,1.963-1.43,2.975-3.146,2.266a5.52,5.52,0,0,1-3.072-4.838c.022-1.959,1.43-2.975,3.147-2.264A5.518,5.518,0,0,1,253.659,166.038Z" fill="#6301f7"/>
        <path id="Path_3512" data-name="Path 3512" d="M264.682,170.6c-.022,1.961-1.43,2.974-3.149,2.263a5.512,5.512,0,0,1-3.069-4.836c.02-1.961,1.43-2.976,3.146-2.265A5.523,5.523,0,0,1,264.682,170.6Z" fill="#6301f7"/>
        <path id="Path_3513" data-name="Path 3513" d="M275.7,175.157c-.02,1.963-1.43,2.975-3.146,2.266a5.517,5.517,0,0,1-3.071-4.836c.022-1.963,1.43-2.975,3.147-2.266A5.517,5.517,0,0,1,275.7,175.157Z" fill="#6301f7"/>
        <path id="Path_3514" data-name="Path 3514" d="M286.726,179.718c-.021,1.961-1.43,2.974-3.147,2.265a5.52,5.52,0,0,1-3.07-4.836c.02-1.962,1.429-2.976,3.145-2.265A5.517,5.517,0,0,1,286.726,179.718Z" fill="#6301f7"/>
        <path id="Path_3515" data-name="Path 3515" d="M297.748,184.278c-.021,1.961-1.43,2.975-3.148,2.264a5.521,5.521,0,0,1-3.07-4.838c.023-1.959,1.43-2.973,3.148-2.264A5.526,5.526,0,0,1,297.748,184.278Z" fill="#6301f7"/>
        <path id="Path_3516" data-name="Path 3516" d="M253.771,155.386c-.019,1.961-1.427,2.974-3.144,2.263a5.514,5.514,0,0,1-3.072-4.835c.021-1.962,1.429-2.975,3.146-2.266A5.516,5.516,0,0,1,253.771,155.386Z" fill="#6301f7"/>
        <path id="Path_3517" data-name="Path 3517" d="M264.8,159.946c-.022,1.961-1.431,2.973-3.148,2.264a5.519,5.519,0,0,1-3.071-4.836c.022-1.963,1.431-2.977,3.148-2.266A5.522,5.522,0,0,1,264.8,159.946Z" fill="#6301f7"/>
        <path id="Path_3518" data-name="Path 3518" d="M275.816,164.505c-.02,1.961-1.429,2.975-3.146,2.265a5.517,5.517,0,0,1-3.07-4.837c.021-1.959,1.429-2.975,3.147-2.266A5.517,5.517,0,0,1,275.816,164.505Z" fill="#6301f7"/>
        <path id="Path_3519" data-name="Path 3519" d="M286.84,169.065c-.022,1.961-1.43,2.975-3.147,2.264a5.522,5.522,0,0,1-3.072-4.836c.023-1.961,1.432-2.976,3.148-2.266A5.525,5.525,0,0,1,286.84,169.065Z" fill="#6301f7"/>
        <path id="Path_3520" data-name="Path 3520" d="M297.862,173.624c-.021,1.963-1.429,2.977-3.147,2.266a5.523,5.523,0,0,1-3.071-4.838c.021-1.961,1.43-2.975,3.147-2.266A5.523,5.523,0,0,1,297.862,173.624Z" fill="#6301f7"/>
        <path id="Path_3521" data-name="Path 3521" d="M253.88,145.378c-.021,1.961-1.431,2.977-3.148,2.266a5.523,5.523,0,0,1-3.069-4.838c.02-1.961,1.431-2.975,3.146-2.264A5.52,5.52,0,0,1,253.88,145.378Z" fill="#6301f7"/>
        <path id="Path_3522" data-name="Path 3522" d="M264.9,149.939c-.02,1.96-1.429,2.974-3.146,2.263a5.523,5.523,0,0,1-3.073-4.836c.022-1.961,1.431-2.974,3.148-2.264A5.512,5.512,0,0,1,264.9,149.939Z" fill="#6301f7"/>
        <path id="Path_3523" data-name="Path 3523" d="M275.924,154.5c-.021,1.963-1.429,2.977-3.147,2.266a5.514,5.514,0,0,1-3.069-4.836c.021-1.963,1.429-2.977,3.146-2.266A5.519,5.519,0,0,1,275.924,154.5Z" fill="#6301f7"/>
        <path id="Path_3524" data-name="Path 3524" d="M286.946,159.058c-.02,1.961-1.429,2.974-3.146,2.265a5.521,5.521,0,0,1-3.071-4.838c.021-1.961,1.43-2.974,3.147-2.263A5.509,5.509,0,0,1,286.946,159.058Z" fill="#6301f7"/>
        <path id="Path_3525" data-name="Path 3525" d="M297.969,163.618c-.021,1.961-1.43,2.975-3.147,2.264a5.515,5.515,0,0,1-3.07-4.836c.019-1.963,1.43-2.975,3.146-2.266A5.521,5.521,0,0,1,297.969,163.618Z" fill="#6301f7"/>
        <path id="Path_3526" data-name="Path 3526" d="M253.994,134.726c-.021,1.96-1.43,2.974-3.146,2.265a5.524,5.524,0,0,1-3.072-4.838c.022-1.961,1.429-2.974,3.148-2.264A5.517,5.517,0,0,1,253.994,134.726Z" fill="#6301f7"/>
        <path id="Path_3527" data-name="Path 3527" d="M265.017,139.285c-.021,1.96-1.431,2.976-3.148,2.265a5.514,5.514,0,0,1-3.07-4.837c.02-1.96,1.43-2.976,3.146-2.265A5.521,5.521,0,0,1,265.017,139.285Z" fill="#6301f7"/>
        <path id="Path_3528" data-name="Path 3528" d="M276.037,143.845c-.02,1.961-1.428,2.974-3.145,2.265a5.526,5.526,0,0,1-3.072-4.838c.024-1.961,1.43-2.974,3.149-2.263A5.516,5.516,0,0,1,276.037,143.845Z" fill="#6301f7"/>
        <path id="Path_3529" data-name="Path 3529" d="M287.06,148.4c-.02,1.959-1.429,2.975-3.146,2.266a5.518,5.518,0,0,1-3.07-4.838c.02-1.961,1.429-2.975,3.146-2.266A5.518,5.518,0,0,1,287.06,148.4Z" fill="#6301f7"/>
        <path id="Path_3530" data-name="Path 3530" d="M298.083,152.964c-.022,1.961-1.431,2.976-3.148,2.266a5.527,5.527,0,0,1-3.07-4.838c.022-1.961,1.43-2.975,3.147-2.264A5.518,5.518,0,0,1,298.083,152.964Z" fill="#6301f7"/>
        <path id="Path_3531" data-name="Path 3531" d="M254.1,125.042c-.022,1.961-1.43,2.975-3.147,2.265a5.518,5.518,0,0,1-3.071-4.837c.02-1.961,1.43-2.975,3.147-2.266A5.525,5.525,0,0,1,254.1,125.042Z" fill="#6301f7"/>
        <path id="Path_3532" data-name="Path 3532" d="M265.12,129.6c-.02,1.96-1.43,2.976-3.147,2.265a5.52,5.52,0,0,1-3.071-4.837c.02-1.962,1.43-2.975,3.147-2.264A5.518,5.518,0,0,1,265.12,129.6Z" fill="#6301f7"/>
        <path id="Path_3533" data-name="Path 3533" d="M276.142,134.161c-.022,1.961-1.43,2.975-3.147,2.266a5.52,5.52,0,0,1-3.07-4.838c.021-1.961,1.429-2.975,3.145-2.265A5.516,5.516,0,0,1,276.142,134.161Z" fill="#6301f7"/>
        <path id="Path_3534" data-name="Path 3534" d="M287.164,138.72c-.02,1.962-1.429,2.976-3.147,2.265a5.518,5.518,0,0,1-3.07-4.837c.022-1.962,1.43-2.974,3.147-2.264A5.52,5.52,0,0,1,287.164,138.72Z" fill="#6301f7"/>
        <path id="Path_3535" data-name="Path 3535" d="M298.186,143.28c-.02,1.961-1.429,2.975-3.146,2.266a5.519,5.519,0,0,1-3.071-4.838c.021-1.961,1.429-2.975,3.146-2.265A5.517,5.517,0,0,1,298.186,143.28Z" fill="#6301f7"/>
        <path id="Path_3536" data-name="Path 3536" d="M254.2,115.034c-.021,1.962-1.429,2.975-3.146,2.266a5.52,5.52,0,0,1-3.071-4.838c.021-1.961,1.43-2.975,3.147-2.264A5.511,5.511,0,0,1,254.2,115.034Z" fill="#6301f7"/>
        <path id="Path_3537" data-name="Path 3537" d="M265.228,119.6c-.023,1.961-1.431,2.974-3.148,2.263a5.514,5.514,0,0,1-3.07-4.836c.02-1.961,1.429-2.975,3.146-2.265A5.524,5.524,0,0,1,265.228,119.6Z" fill="#6301f7"/>
        <path id="Path_3538" data-name="Path 3538" d="M276.249,124.153c-.02,1.963-1.43,2.975-3.146,2.266a5.519,5.519,0,0,1-3.071-4.838c.023-1.96,1.429-2.975,3.147-2.264A5.518,5.518,0,0,1,276.249,124.153Z" fill="#6301f7"/>
        <path id="Path_3539" data-name="Path 3539" d="M287.271,128.714c-.021,1.961-1.429,2.975-3.146,2.263a5.511,5.511,0,0,1-3.07-4.835c.02-1.961,1.429-2.975,3.146-2.265A5.517,5.517,0,0,1,287.271,128.714Z" fill="#6301f7"/>
        <path id="Path_3540" data-name="Path 3540" d="M298.294,133.272c-.023,1.963-1.43,2.977-3.148,2.266a5.52,5.52,0,0,1-3.07-4.838c.021-1.959,1.43-2.974,3.147-2.264A5.523,5.523,0,0,1,298.294,133.272Z" fill="#6301f7"/>
      </g>
      <g id="Group_905" data-name="Group 905" transform="translate(596 2918)">
        <path id="Path_3571" data-name="Path 3571" d="M242.934,98.251l60.613,27.977L364.108,98.1,303.494,70.121Z" fill="#48f5e8"/>
      </g>
    </g>
  </g>
</svg>
