<svg xmlns="http://www.w3.org/2000/svg" width="424.334" height="228.821" viewBox="0 0 424.334 228.821">
  <g id="Group_896" data-name="Group 896" transform="translate(-0.442 -70.121)">
    <g id="Group_853" data-name="Group 853">
      <path id="Path_3442" data-name="Path 3442" d="M121.779,170.282,61.055,198.259V126.341l60.725-27.977Z" fill="#f6a3ee"/>
      <g id="Group_852" data-name="Group 852">
        <path id="Path_3443" data-name="Path 3443" d="M115.433,173.235l6.347-6.5v-8.389l-21.494,21.875Z" fill="#f6a3ee"/>
        <path id="Path_3444" data-name="Path 3444" d="M88.5,185.655l33.275-33.832v-8.391L73.354,192.643Z" fill="#f6a3ee"/>
        <path id="Path_3445" data-name="Path 3445" d="M61.055,198.077l60.725-61.168V128.52L61.055,190.1v7.977Z" fill="#f6a3ee"/>
        <path id="Path_3446" data-name="Path 3446" d="M61.055,175.189v8.389L121.779,122v-8.387Z" fill="#f6a3ee"/>
        <path id="Path_3447" data-name="Path 3447" d="M61.055,160.274v8.389l60.725-61.58V98.694Z" fill="#f6a3ee"/>
        <path id="Path_3448" data-name="Path 3448" d="M95.4,110.5,61.055,145.36v8.391l49.5-50.244Z" fill="#f6a3ee"/>
        <path id="Path_3449" data-name="Path 3449" d="M68.471,122.915l-7.416,7.533v8.391l22.566-22.91Z" fill="#f6a3ee"/>
      </g>
    </g>
    <g id="Group_857" data-name="Group 857">
      <g id="Group_856" data-name="Group 856">
        <path id="Path_3457" data-name="Path 3457" d="M370.4,171.876l-6.347-6.5v-8.391l21.5,21.877Z" fill="#6301f7"/>
        <path id="Path_3458" data-name="Path 3458" d="M397.329,184.3l-33.276-33.832v-8.391l48.425,49.211Z" fill="#6301f7"/>
        <path id="Path_3459" data-name="Path 3459" d="M424.776,196.718l-60.724-61.17v-8.387l60.724,61.58v7.977Z" fill="#6301f7"/>
        <path id="Path_3460" data-name="Path 3460" d="M424.776,173.829v8.389l-60.724-61.584v-8.387Z" fill="#6301f7"/>
        <path id="Path_3461" data-name="Path 3461" d="M424.776,158.915V167.3l-60.724-61.582V97.333Z" fill="#6301f7"/>
        <path id="Path_3462" data-name="Path 3462" d="M390.431,109.134,424.776,144v8.389l-49.5-50.242Z" fill="#6301f7"/>
        <path id="Path_3463" data-name="Path 3463" d="M417.361,121.556l7.415,7.531v8.391l-22.564-22.908Z" fill="#6301f7"/>
      </g>
    </g>
    <g id="Group_858" data-name="Group 858">
      <path id="Path_3464" data-name="Path 3464" d="M121.779,170.282l60.613,27.977V126.341L121.779,98.364Z" fill="#e83276" stroke="#f22e76" stroke-miterlimit="10" stroke-width="1"/>
    </g>
    <g id="Group_859" data-name="Group 859">
      <path id="Path_3465" data-name="Path 3465" d="M.442,170.282l60.612,27.977V126.341L.442,98.364Z"/>
    </g>
    <g id="Group_860" data-name="Group 860">
      <path id="Path_3466" data-name="Path 3466" d="M182.356,270.185l60.614,27.977V226.243l-60.614-27.977Z" fill="#e83276" stroke="#f22e76" stroke-miterlimit="10" stroke-width="1"/>
    </g>
    <g id="Group_861" data-name="Group 861">
      <path id="Path_3467" data-name="Path 3467" d="M303.53,270.185l60.614,27.977V226.243L303.53,198.267Z" fill="#48f5e8"/>
    </g>
    <g id="Group_862" data-name="Group 862">
      <path id="Path_3468" data-name="Path 3468" d="M61.074,270.185l60.613,27.977V226.243L61.074,198.267Z" fill="#ffee3f"/>
    </g>
    <g id="Group_863" data-name="Group 863">
      <path id="Path_3469" data-name="Path 3469" d="M242.934,170.282l-60.542,27.977V126.341l60.542-27.977Z" fill="#ffee3f"/>
    </g>
    <g id="Group_864" data-name="Group 864">
      <path id="Path_3470" data-name="Path 3470" d="M182.229,270.185l-60.542,27.977V226.243l60.542-27.977Z" fill="#48f5e8"/>
    </g>
    <g id="Group_865" data-name="Group 865">
      <path id="Path_3471" data-name="Path 3471" d="M303.475,270.185l-60.541,27.977V226.243l60.541-27.977Z"/>
    </g>
    <g id="Group_866" data-name="Group 866">
      <path id="Path_3472" data-name="Path 3472" d="M424.685,270.185l-60.541,27.977V226.243l60.541-27.977Z" fill="#f6a3ee"/>
    </g>
    <g id="Group_867" data-name="Group 867">
      <path id="Path_3473" data-name="Path 3473" d="M364.108,170.017l-60.542,27.977V126.076L364.108,98.1Z" fill="#e83276" stroke="#f22e76" stroke-miterlimit="10" stroke-width="1"/>
    </g>
    <g id="Group_873" data-name="Group 873">
      <path id="Path_3479" data-name="Path 3479" d="M61.055,198.259,121.6,226.235l60.724-27.961L121.779,170.3Z"/>
    </g>
    <g id="Group_874" data-name="Group 874">
      <path id="Path_3480" data-name="Path 3480" d="M182.3,198.259l60.541,27.977,60.723-27.961L243.025,170.3Z" fill="#48f5e8"/>
    </g>
    <g id="Group_876" data-name="Group 876">
      <path id="Path_3511" data-name="Path 3511" d="M253.659,166.038c-.022,1.963-1.43,2.975-3.146,2.266a5.52,5.52,0,0,1-3.072-4.838c.022-1.959,1.43-2.975,3.147-2.264A5.518,5.518,0,0,1,253.659,166.038Z" fill="#6301f7"/>
      <path id="Path_3512" data-name="Path 3512" d="M264.682,170.6c-.022,1.961-1.43,2.974-3.149,2.263a5.512,5.512,0,0,1-3.069-4.836c.02-1.961,1.43-2.976,3.146-2.265A5.523,5.523,0,0,1,264.682,170.6Z" fill="#6301f7"/>
      <path id="Path_3513" data-name="Path 3513" d="M275.7,175.157c-.02,1.963-1.43,2.975-3.146,2.266a5.517,5.517,0,0,1-3.071-4.836c.022-1.963,1.43-2.975,3.147-2.266A5.517,5.517,0,0,1,275.7,175.157Z" fill="#6301f7"/>
      <path id="Path_3514" data-name="Path 3514" d="M286.726,179.718c-.021,1.961-1.43,2.974-3.147,2.265a5.52,5.52,0,0,1-3.07-4.836c.02-1.962,1.429-2.976,3.145-2.265A5.517,5.517,0,0,1,286.726,179.718Z" fill="#6301f7"/>
      <path id="Path_3515" data-name="Path 3515" d="M297.748,184.278c-.021,1.961-1.43,2.975-3.148,2.264a5.521,5.521,0,0,1-3.07-4.838c.023-1.959,1.43-2.973,3.148-2.264A5.526,5.526,0,0,1,297.748,184.278Z" fill="#6301f7"/>
      <path id="Path_3516" data-name="Path 3516" d="M253.771,155.386c-.019,1.961-1.427,2.974-3.144,2.263a5.514,5.514,0,0,1-3.072-4.835c.021-1.962,1.429-2.975,3.146-2.266A5.516,5.516,0,0,1,253.771,155.386Z" fill="#6301f7"/>
      <path id="Path_3517" data-name="Path 3517" d="M264.8,159.946c-.022,1.961-1.431,2.973-3.148,2.264a5.519,5.519,0,0,1-3.071-4.836c.022-1.963,1.431-2.977,3.148-2.266A5.522,5.522,0,0,1,264.8,159.946Z" fill="#6301f7"/>
      <path id="Path_3518" data-name="Path 3518" d="M275.816,164.505c-.02,1.961-1.429,2.975-3.146,2.265a5.517,5.517,0,0,1-3.07-4.837c.021-1.959,1.429-2.975,3.147-2.266A5.517,5.517,0,0,1,275.816,164.505Z" fill="#6301f7"/>
      <path id="Path_3519" data-name="Path 3519" d="M286.84,169.065c-.022,1.961-1.43,2.975-3.147,2.264a5.522,5.522,0,0,1-3.072-4.836c.023-1.961,1.432-2.976,3.148-2.266A5.525,5.525,0,0,1,286.84,169.065Z" fill="#6301f7"/>
      <path id="Path_3520" data-name="Path 3520" d="M297.862,173.624c-.021,1.963-1.429,2.977-3.147,2.266a5.523,5.523,0,0,1-3.071-4.838c.021-1.961,1.43-2.975,3.147-2.266A5.523,5.523,0,0,1,297.862,173.624Z" fill="#6301f7"/>
      <path id="Path_3521" data-name="Path 3521" d="M253.88,145.378c-.021,1.961-1.431,2.977-3.148,2.266a5.523,5.523,0,0,1-3.069-4.838c.02-1.961,1.431-2.975,3.146-2.264A5.52,5.52,0,0,1,253.88,145.378Z" fill="#6301f7"/>
      <path id="Path_3522" data-name="Path 3522" d="M264.9,149.939c-.02,1.96-1.429,2.974-3.146,2.263a5.523,5.523,0,0,1-3.073-4.836c.022-1.961,1.431-2.974,3.148-2.264A5.512,5.512,0,0,1,264.9,149.939Z" fill="#6301f7"/>
      <path id="Path_3523" data-name="Path 3523" d="M275.924,154.5c-.021,1.963-1.429,2.977-3.147,2.266a5.514,5.514,0,0,1-3.069-4.836c.021-1.963,1.429-2.977,3.146-2.266A5.519,5.519,0,0,1,275.924,154.5Z" fill="#6301f7"/>
      <path id="Path_3524" data-name="Path 3524" d="M286.946,159.058c-.02,1.961-1.429,2.974-3.146,2.265a5.521,5.521,0,0,1-3.071-4.838c.021-1.961,1.43-2.974,3.147-2.263A5.509,5.509,0,0,1,286.946,159.058Z" fill="#6301f7"/>
      <path id="Path_3525" data-name="Path 3525" d="M297.969,163.618c-.021,1.961-1.43,2.975-3.147,2.264a5.515,5.515,0,0,1-3.07-4.836c.019-1.963,1.43-2.975,3.146-2.266A5.521,5.521,0,0,1,297.969,163.618Z" fill="#6301f7"/>
      <path id="Path_3526" data-name="Path 3526" d="M253.994,134.726c-.021,1.96-1.43,2.974-3.146,2.265a5.524,5.524,0,0,1-3.072-4.838c.022-1.961,1.429-2.974,3.148-2.264A5.517,5.517,0,0,1,253.994,134.726Z" fill="#6301f7"/>
      <path id="Path_3527" data-name="Path 3527" d="M265.017,139.285c-.021,1.96-1.431,2.976-3.148,2.265a5.514,5.514,0,0,1-3.07-4.837c.02-1.96,1.43-2.976,3.146-2.265A5.521,5.521,0,0,1,265.017,139.285Z" fill="#6301f7"/>
      <path id="Path_3528" data-name="Path 3528" d="M276.037,143.845c-.02,1.961-1.428,2.974-3.145,2.265a5.526,5.526,0,0,1-3.072-4.838c.024-1.961,1.43-2.974,3.149-2.263A5.516,5.516,0,0,1,276.037,143.845Z" fill="#6301f7"/>
      <path id="Path_3529" data-name="Path 3529" d="M287.06,148.4c-.02,1.959-1.429,2.975-3.146,2.266a5.518,5.518,0,0,1-3.07-4.838c.02-1.961,1.429-2.975,3.146-2.266A5.518,5.518,0,0,1,287.06,148.4Z" fill="#6301f7"/>
      <path id="Path_3530" data-name="Path 3530" d="M298.083,152.964c-.022,1.961-1.431,2.976-3.148,2.266a5.527,5.527,0,0,1-3.07-4.838c.022-1.961,1.43-2.975,3.147-2.264A5.518,5.518,0,0,1,298.083,152.964Z" fill="#6301f7"/>
      <path id="Path_3531" data-name="Path 3531" d="M254.1,125.042c-.022,1.961-1.43,2.975-3.147,2.265a5.518,5.518,0,0,1-3.071-4.837c.02-1.961,1.43-2.975,3.147-2.266A5.525,5.525,0,0,1,254.1,125.042Z" fill="#6301f7"/>
      <path id="Path_3532" data-name="Path 3532" d="M265.12,129.6c-.02,1.96-1.43,2.976-3.147,2.265a5.52,5.52,0,0,1-3.071-4.837c.02-1.962,1.43-2.975,3.147-2.264A5.518,5.518,0,0,1,265.12,129.6Z" fill="#6301f7"/>
      <path id="Path_3533" data-name="Path 3533" d="M276.142,134.161c-.022,1.961-1.43,2.975-3.147,2.266a5.52,5.52,0,0,1-3.07-4.838c.021-1.961,1.429-2.975,3.145-2.265A5.516,5.516,0,0,1,276.142,134.161Z" fill="#6301f7"/>
      <path id="Path_3534" data-name="Path 3534" d="M287.164,138.72c-.02,1.962-1.429,2.976-3.147,2.265a5.518,5.518,0,0,1-3.07-4.837c.022-1.962,1.43-2.974,3.147-2.264A5.52,5.52,0,0,1,287.164,138.72Z" fill="#6301f7"/>
      <path id="Path_3535" data-name="Path 3535" d="M298.186,143.28c-.02,1.961-1.429,2.975-3.146,2.266a5.519,5.519,0,0,1-3.071-4.838c.021-1.961,1.429-2.975,3.146-2.265A5.517,5.517,0,0,1,298.186,143.28Z" fill="#6301f7"/>
      <path id="Path_3536" data-name="Path 3536" d="M254.2,115.034c-.021,1.962-1.429,2.975-3.146,2.266a5.52,5.52,0,0,1-3.071-4.838c.021-1.961,1.43-2.975,3.147-2.264A5.511,5.511,0,0,1,254.2,115.034Z" fill="#6301f7"/>
      <path id="Path_3537" data-name="Path 3537" d="M265.228,119.6c-.023,1.961-1.431,2.974-3.148,2.263a5.514,5.514,0,0,1-3.07-4.836c.02-1.961,1.429-2.975,3.146-2.265A5.524,5.524,0,0,1,265.228,119.6Z" fill="#6301f7"/>
      <path id="Path_3538" data-name="Path 3538" d="M276.249,124.153c-.02,1.963-1.43,2.975-3.146,2.266a5.519,5.519,0,0,1-3.071-4.838c.023-1.96,1.429-2.975,3.147-2.264A5.518,5.518,0,0,1,276.249,124.153Z" fill="#6301f7"/>
      <path id="Path_3539" data-name="Path 3539" d="M287.271,128.714c-.021,1.961-1.429,2.975-3.146,2.263a5.511,5.511,0,0,1-3.07-4.835c.02-1.961,1.429-2.975,3.146-2.265A5.517,5.517,0,0,1,287.271,128.714Z" fill="#6301f7"/>
      <path id="Path_3540" data-name="Path 3540" d="M298.294,133.272c-.023,1.963-1.43,2.977-3.148,2.266a5.52,5.52,0,0,1-3.07-4.838c.021-1.959,1.43-2.974,3.147-2.264A5.523,5.523,0,0,1,298.294,133.272Z" fill="#6301f7"/>
    </g>
    <g id="Group_877" data-name="Group 877">
      <path id="Path_3541" data-name="Path 3541" d="M172.408,265.577c.022,2,1.456,3.031,3.206,2.307a5.62,5.62,0,0,0,3.13-4.928c-.021-2-1.457-3.031-3.207-2.309A5.627,5.627,0,0,0,172.408,265.577Z" fill="#333"/>
      <path id="Path_3542" data-name="Path 3542" d="M161.175,270.224c.021,2,1.458,3.031,3.207,2.308a5.625,5.625,0,0,0,3.13-4.93c-.022-2-1.457-3.031-3.207-2.306A5.621,5.621,0,0,0,161.175,270.224Z" fill="#333"/>
      <path id="Path_3543" data-name="Path 3543" d="M149.943,274.87c.022,2,1.456,3.031,3.206,2.309a5.622,5.622,0,0,0,3.129-4.928c-.021-2-1.456-3.033-3.206-2.311A5.627,5.627,0,0,0,149.943,274.87Z" fill="#333"/>
      <path id="Path_3544" data-name="Path 3544" d="M138.71,279.518c.021,2,1.456,3.03,3.207,2.307a5.627,5.627,0,0,0,3.129-4.93c-.021-2-1.458-3.031-3.208-2.306A5.623,5.623,0,0,0,138.71,279.518Z" fill="#333"/>
      <path id="Path_3545" data-name="Path 3545" d="M127.477,284.165c.023,2,1.457,3.029,3.207,2.307a5.623,5.623,0,0,0,3.13-4.93c-.021-2-1.457-3.031-3.207-2.307A5.625,5.625,0,0,0,127.477,284.165Z" fill="#333"/>
      <path id="Path_3546" data-name="Path 3546" d="M172.292,254.722c.021,2,1.456,3.031,3.206,2.306a5.62,5.62,0,0,0,3.13-4.929c-.022-2-1.458-3.032-3.208-2.307A5.619,5.619,0,0,0,172.292,254.722Z" fill="#333"/>
      <path id="Path_3547" data-name="Path 3547" d="M161.059,259.368c.021,2,1.458,3.031,3.208,2.307a5.62,5.62,0,0,0,3.128-4.928c-.021-2-1.457-3.033-3.207-2.308A5.622,5.622,0,0,0,161.059,259.368Z" fill="#333"/>
      <path id="Path_3548" data-name="Path 3548" d="M149.827,264.015c.022,2,1.456,3.031,3.206,2.306a5.617,5.617,0,0,0,3.129-4.928c-.021-2-1.457-3.033-3.207-2.308A5.622,5.622,0,0,0,149.827,264.015Z" fill="#333"/>
      <path id="Path_3549" data-name="Path 3549" d="M138.6,268.661c.019,2,1.455,3.031,3.205,2.309a5.629,5.629,0,0,0,3.13-4.93c-.022-2-1.457-3.033-3.207-2.309A5.622,5.622,0,0,0,138.6,268.661Z" fill="#333"/>
      <path id="Path_3550" data-name="Path 3550" d="M127.362,273.308c.022,2,1.456,3.031,3.206,2.308a5.621,5.621,0,0,0,3.13-4.929c-.02-2-1.457-3.032-3.207-2.309A5.627,5.627,0,0,0,127.362,273.308Z" fill="#333"/>
      <path id="Path_3551" data-name="Path 3551" d="M172.183,244.522c.021,2,1.456,3.032,3.206,2.309a5.628,5.628,0,0,0,3.13-4.93c-.022-2-1.458-3.031-3.208-2.306A5.616,5.616,0,0,0,172.183,244.522Z" fill="#333"/>
      <path id="Path_3552" data-name="Path 3552" d="M160.949,249.169c.022,2,1.458,3.033,3.208,2.308a5.617,5.617,0,0,0,3.128-4.929c-.02-2-1.456-3.031-3.205-2.307A5.627,5.627,0,0,0,160.949,249.169Z" fill="#333"/>
      <path id="Path_3553" data-name="Path 3553" d="M149.719,253.815c.019,2,1.456,3.034,3.206,2.309a5.623,5.623,0,0,0,3.128-4.928c-.021-2-1.456-3.033-3.206-2.308A5.616,5.616,0,0,0,149.719,253.815Z" fill="#333"/>
      <path id="Path_3554" data-name="Path 3554" d="M138.484,258.464c.023,2,1.458,3.031,3.207,2.306a5.614,5.614,0,0,0,3.129-4.929c-.02-2-1.456-3.029-3.206-2.307A5.627,5.627,0,0,0,138.484,258.464Z" fill="#333"/>
      <path id="Path_3555" data-name="Path 3555" d="M127.253,263.11c.021,2,1.457,3.032,3.207,2.307a5.62,5.62,0,0,0,3.128-4.928c-.021-2-1.456-3.033-3.206-2.308A5.622,5.622,0,0,0,127.253,263.11Z" fill="#333"/>
      <path id="Path_3556" data-name="Path 3556" d="M172.066,233.667c.022,2,1.457,3.031,3.207,2.309a5.628,5.628,0,0,0,3.129-4.93c-.021-2-1.457-3.031-3.207-2.309A5.629,5.629,0,0,0,172.066,233.667Z" fill="#333"/>
      <path id="Path_3557" data-name="Path 3557" d="M160.834,238.314c.021,2,1.457,3.031,3.207,2.308a5.627,5.627,0,0,0,3.129-4.93c-.021-2-1.457-3.033-3.206-2.308A5.625,5.625,0,0,0,160.834,238.314Z" fill="#333"/>
      <path id="Path_3558" data-name="Path 3558" d="M149.6,242.96c.022,2,1.458,3.033,3.208,2.308a5.624,5.624,0,0,0,3.129-4.929c-.022-2-1.458-3.031-3.207-2.309A5.628,5.628,0,0,0,149.6,242.96Z" fill="#333"/>
      <path id="Path_3559" data-name="Path 3559" d="M138.369,247.606c.022,2,1.457,3.034,3.206,2.309a5.628,5.628,0,0,0,3.13-4.93c-.021-2-1.457-3.031-3.207-2.306A5.618,5.618,0,0,0,138.369,247.606Z" fill="#333"/>
      <path id="Path_3560" data-name="Path 3560" d="M127.137,252.253c.021,2,1.457,3.033,3.207,2.309a5.627,5.627,0,0,0,3.129-4.93c-.022-2-1.457-3.031-3.206-2.307A5.62,5.62,0,0,0,127.137,252.253Z" fill="#333"/>
      <path id="Path_3561" data-name="Path 3561" d="M171.961,223.8c.021,2,1.457,3.031,3.207,2.308a5.626,5.626,0,0,0,3.129-4.929c-.022-2-1.457-3.032-3.207-2.309A5.625,5.625,0,0,0,171.961,223.8Z" fill="#333"/>
      <path id="Path_3562" data-name="Path 3562" d="M160.729,228.444c.021,2,1.456,3.033,3.206,2.309a5.627,5.627,0,0,0,3.129-4.93c-.021-2-1.457-3.031-3.207-2.306A5.618,5.618,0,0,0,160.729,228.444Z" fill="#333"/>
      <path id="Path_3563" data-name="Path 3563" d="M149.5,233.091c.021,2,1.457,3.033,3.207,2.308a5.625,5.625,0,0,0,3.129-4.929c-.022-2-1.457-3.031-3.207-2.307A5.621,5.621,0,0,0,149.5,233.091Z" fill="#333"/>
      <path id="Path_3564" data-name="Path 3564" d="M138.264,237.737c.021,2,1.457,3.033,3.207,2.309a5.622,5.622,0,0,0,3.129-4.93c-.022-2-1.458-3.031-3.208-2.306A5.616,5.616,0,0,0,138.264,237.737Z" fill="#333"/>
      <path id="Path_3565" data-name="Path 3565" d="M127.031,242.386c.022,2,1.457,3.031,3.207,2.306a5.622,5.622,0,0,0,3.129-4.929c-.021-2-1.457-3.032-3.207-2.307A5.627,5.627,0,0,0,127.031,242.386Z" fill="#333"/>
      <path id="Path_3566" data-name="Path 3566" d="M171.851,213.6c.022,2,1.458,3.031,3.208,2.306a5.62,5.62,0,0,0,3.129-4.927c-.022-2-1.458-3.034-3.207-2.309A5.627,5.627,0,0,0,171.851,213.6Z" fill="#333"/>
      <path id="Path_3567" data-name="Path 3567" d="M160.619,218.247c.022,2,1.457,3.031,3.207,2.307a5.621,5.621,0,0,0,3.129-4.928c-.021-2-1.456-3.033-3.206-2.309A5.625,5.625,0,0,0,160.619,218.247Z" fill="#333"/>
      <path id="Path_3568" data-name="Path 3568" d="M149.387,222.893c.021,2,1.457,3.032,3.207,2.307a5.619,5.619,0,0,0,3.129-4.928c-.022-2-1.457-3.033-3.206-2.308A5.626,5.626,0,0,0,149.387,222.893Z" fill="#333"/>
      <path id="Path_3569" data-name="Path 3569" d="M138.154,227.54c.022,2,1.457,3.031,3.207,2.309a5.624,5.624,0,0,0,3.129-4.93c-.021-2-1.457-3.031-3.207-2.309A5.627,5.627,0,0,0,138.154,227.54Z" fill="#333"/>
      <path id="Path_3570" data-name="Path 3570" d="M126.922,232.187c.021,2,1.457,3.031,3.207,2.308a5.625,5.625,0,0,0,3.129-4.93c-.022-2-1.457-3.031-3.205-2.308A5.625,5.625,0,0,0,126.922,232.187Z" fill="#333"/>
    </g>
    <g id="Group_878" data-name="Group 878">
      <path id="Path_3571" data-name="Path 3571" d="M242.934,98.251l60.613,27.977L364.108,98.1,303.494,70.121Z" fill="#48f5e8"/>
    </g>
  </g>
</svg>
