<?xml version="1.0" encoding="utf-8"?>
<!-- Generator: Adobe Illustrator 25.0.0, SVG Export Plug-In . SVG Version: 6.00 Build 0)  -->
<svg version="1.1" id="Layer_1" xmlns="http://www.w3.org/2000/svg" xmlns:xlink="http://www.w3.org/1999/xlink" x="0px" y="0px"
	 viewBox="0 0 600 600" style="enable-background:new 0 0 600 600;" xml:space="preserve">
<style type="text/css">
	.st0{fill:#DF4476;}
	.st1{fill:#FFEE3F;}
	.st2{fill:#7FF1E7;}
</style>
<g id="Group_3" transform="translate(117.423 239.956) rotate(-90)">
	<g id="Group_1" transform="translate(0 0)">
		
			<rect id="Rectangle_13" x="-358.8" y="183.8" transform="matrix(-2.535182e-06 -1 1 -2.535182e-06 -543.8621 121.8955)" class="st0" width="295.6" height="298.1"/>
		<path id="Intersection_1" class="st1" d="M-319.6,480.7c-0.2-4.3-0.4-8.7-0.4-13c0-15.4,1.6-30.8,4.7-45.8
			c6-29.1,17.7-56.8,34.5-81.3c33.6-49.4,85.2-83.8,143.8-95.7c24.7-5,50.1-5.9,75.1-2.8v107.8c-14.1-1.6-28.3-1-42.2,1.8
			c-42.8,8.7-78.7,37.9-95.8,78c-3.4,8-6,16.3-7.8,24.8c-1.8,8.6-2.7,17.4-2.7,26.3H-319.6z"/>
	</g>
</g>
<g id="Group_837" transform="translate(118.476 -0.456) rotate(90)">
	<g id="Group_1-2" transform="translate(0 0)">
		
			<rect id="Rectangle_13-2" x="1.7" y="-186.5" transform="matrix(2.535182e-06 1 -1 2.535182e-06 112.0544 -186.9783)" class="st0" width="295.6" height="298.1"/>
		<path id="Intersection_1-2" class="st2" d="M40.9,110.3c-0.2-4.3-0.4-8.7-0.4-13c0-15.4,1.6-30.8,4.7-45.8
			c6-29.1,17.7-56.8,34.5-81.3c33.6-49.4,85.2-83.8,143.8-95.7c24.7-5,50.1-5.9,75.1-2.8v107.8c-14.1-1.6-28.3-1-42.2,1.8
			c-42.8,8.7-78.7,37.9-95.8,78c-3.4,8-6,16.3-7.8,24.8c-1.8,8.6-2.7,17.4-2.7,26.3H40.9z"/>
	</g>
</g>
</svg>
