<?xml version="1.0" encoding="utf-8"?>
<!-- Generator: Adobe Illustrator 25.0.0, SVG Export Plug-In . SVG Version: 6.00 Build 0)  -->
<svg version="1.1" id="Layer_1" xmlns="http://www.w3.org/2000/svg" xmlns:xlink="http://www.w3.org/1999/xlink" x="0px" y="0px"
	 viewBox="0 0 600 600" style="enable-background:new 0 0 600 600;" xml:space="preserve">
<style type="text/css">
	.st0{fill:#07D9C9;}
	.st1{fill:#6301F7;}
	.st2{fill:#F22E76;}
	.st3{fill:#F6A3EE;}
	.st4{fill:#F7D404;}
</style>
<g>
	<rect x="0" y="1.1" class="st0" width="202" height="201.4"/>
	<polygon class="st1" points="202,202.5 11.4,1.1 202,1.1 	"/>
	<rect x="202" y="1.1" width="202" height="201.4"/>
	<g>
		<path class="st0" d="M283.1,121.6c-33.4-33.3-49.8-77-49.3-120.6h95.1c-0.5,19.3,6.6,38.8,21.4,53.5C365.1,69.4,384.7,76.5,404,76
			l0,94.8C360.3,171.2,316.5,154.9,283.1,121.6z"/>
	</g>
	<rect x="403.9" y="403.9" class="st1" width="196.1" height="196"/>
	<path class="st2" d="M558.3,599.8c2.5-21.9,19.8-39.3,41.7-42v-74c-62.8,3-113.1,53.3-115.9,116H558.3z"/>
	<path class="st3" d="M297.3,403.9c0,58.7,47.7,106.3,106.6,106.3c58.9,0,106.6-47.6,106.6-106.3c0-58.7-47.7-106.3-106.6-106.3
		C345,297.6,297.3,345.2,297.3,403.9z M356,403.9c0-26.4,21.4-47.8,47.9-47.8c26.5,0,47.9,21.4,47.9,47.8
		c0,26.4-21.4,47.8-47.9,47.8C377.4,451.6,356,430.2,356,403.9z"/>
	<rect x="403.9" y="202.5" class="st4" width="196.1" height="201.4"/>
	<rect x="-0.1" y="403.9" class="st4" width="202" height="196"/>
	<polygon class="st2" points="600,208.3 403.9,403.9 600,403.9 	"/>
	<g>
		<path class="st2" d="M120.8,524.3c33.4-33.3,49.8-77,49.3-120.6l-95.1,0c0.5,19.3-6.6,38.8-21.4,53.5
			c-14.8,14.8-34.3,21.9-53.7,21.4l0,94.8C43.6,574,87.4,557.6,120.8,524.3z"/>
	</g>
</g>
</svg>
