<?xml version="1.0" encoding="utf-8"?>
<!-- Generator: Adobe Illustrator 25.0.0, SVG Export Plug-In . SVG Version: 6.00 Build 0)  -->
<svg version="1.1" id="Layer_1" xmlns="http://www.w3.org/2000/svg" xmlns:xlink="http://www.w3.org/1999/xlink" x="0px" y="0px"
	 viewBox="0 0 600 600" style="enable-background:new 0 0 600 600;" xml:space="preserve">
<style type="text/css">
	.st0{fill:#07D9C9;}
	.st1{fill:#6301F7;}
	.st2{fill:#F6A3EE;}
	.st3{fill:#F22E76;}
	.st4{fill:#F7D404;}
	.st5{fill:#042338;}
</style>
<g>
	<rect x="0" y="1.1" class="st0" width="202" height="201.4"/>
	<polygon class="st1" points="202,202.5 11.4,1.1 202,1.1 	"/>
	<rect x="202" y="1.1" width="202" height="201.4"/>
	<g>
		<path class="st1" d="M404,170.7l0-94.8c18.2-0.5,36.2-7.6,50-21.4c14.8-14.8,22-34.2,21.4-53.5h95.1c0.4,43.6-16,87.3-49.4,120.5
			C488.8,153.9,446.5,170.3,404,170.7z"/>
		<path class="st0" d="M283.1,121.6c-33.4-33.3-49.8-77-49.3-120.6h95.1c-0.5,19.3,6.6,38.8,21.4,53.5C365.1,69.4,384.7,76.5,404,76
			l0,94.8C360.3,171.2,316.5,154.9,283.1,121.6z"/>
	</g>
	<rect x="404" y="1.1" class="st2" width="196" height="201.4"/>
	<polygon class="st1" points="600,7.1 404,202.5 600,202.5 	"/>
	<rect x="403.9" y="403.9" class="st1" width="196.1" height="196"/>
	<path class="st3" d="M558.3,599.8c2.5-21.9,19.8-39.3,41.7-42v-74c-62.8,3-113.1,53.3-115.9,116H558.3z"/>
	<path class="st2" d="M297.3,403.9c0,58.7,47.7,106.3,106.6,106.3c58.9,0,106.6-47.6,106.6-106.3c0-58.7-47.7-106.3-106.6-106.3
		C345,297.6,297.3,345.2,297.3,403.9z M356,403.9c0-26.4,21.4-47.8,47.9-47.8c26.5,0,47.9,21.4,47.9,47.8
		c0,26.4-21.4,47.8-47.9,47.8C377.4,451.6,356,430.2,356,403.9z"/>
	<rect x="403.9" y="202.5" class="st4" width="196.1" height="201.4"/>
	<rect x="201.9" y="202.5" class="st2" width="202" height="201.4"/>
	<rect x="-0.1" y="202.5" class="st1" width="202" height="201.4"/>
	<rect x="201.9" y="403.9" class="st0" width="202" height="196"/>
	<polygon class="st3" points="207,599.8 392.5,403.9 201.9,403.9 201.9,599.8 	"/>
	<rect x="-0.1" y="403.9" class="st4" width="202" height="196"/>
	<polygon class="st3" points="600,208.3 403.9,403.9 600,403.9 	"/>
	<path class="st5" d="M307.9,403.9c-0.4-58-47.7-105-106-105l0,0v-84.3l0,0c105,0,190.2,84.7,190.6,189.3H307.9z"/>
	<g>
		<path class="st3" d="M120.8,524.3c33.4-33.3,49.8-77,49.3-120.6l-95.1,0c0.5,19.3-6.6,38.8-21.4,53.5
			c-14.8,14.8-34.3,21.9-53.7,21.4l0,94.8C43.6,574,87.4,557.6,120.8,524.3z"/>
		<path class="st4" d="M170.1,403.8c-0.5-42.3-16.9-84.6-49.3-116.9c-33.4-33.3-77.2-49.6-120.9-49.2v94.8
			c19.4-0.5,38.9,6.6,53.7,21.4c13.8,13.8,21,31.8,21.4,49.9L170.1,403.8z"/>
	</g>
</g>
</svg>
