<svg xmlns="http://www.w3.org/2000/svg" width="340.031" height="374.388" viewBox="0 0 340.031 374.388">
  <g id="illustration-brain" transform="translate(-79.1 -115.3)">
    <g id="Group_808" data-name="Group 808" transform="translate(79.1 116.8)">
      <g id="Group_791" data-name="Group 791" transform="translate(147.507)">
        <path id="Path_3343" data-name="Path 3343" d="M325.435,139.873v-2.412c-5.145-2.09-5.788-4.5-2.412-8.763a10.25,10.25,0,0,0-1.206-2.01c-5.387.884-7.075-.8-6.271-6.271-.643-.4-1.286-.8-2.01-1.206-4.341,3.377-6.673,2.733-8.763-2.412h-2.412c-2.09,5.145-4.5,5.788-8.763,2.412a10.25,10.25,0,0,0-2.01,1.206c.884,5.386-.8,7.075-6.271,6.271-.4.643-.8,1.286-1.206,2.01,3.377,4.341,2.733,6.673-2.412,8.763v2.412c5.145,2.09,5.788,4.5,2.412,8.763a10.251,10.251,0,0,0,1.206,2.01c5.387-.884,7.075.8,6.271,6.271.643.4,1.367.8,2.01,1.206,4.341-3.377,6.673-2.733,8.763,2.412h2.412c2.09-5.145,4.5-5.788,8.763-2.412a10.251,10.251,0,0,0,2.01-1.206c-.884-5.467.8-7.075,6.271-6.271.4-.643.8-1.286,1.206-2.01C319.647,144.376,320.29,141.964,325.435,139.873Z" transform="translate(-281.7 -116.8)" fill="none" stroke="#1d1d1b" stroke-miterlimit="10" stroke-width="3"/>
        <path id="Path_3344" data-name="Path 3344" d="M316.156,141.628a9.728,9.728,0,1,1-9.728-9.728A9.71,9.71,0,0,1,316.156,141.628Z" transform="translate(-284.641 -119.76)" fill="none" stroke="#1d1d1b" stroke-miterlimit="10" stroke-width="3"/>
        <path id="Path_3345" data-name="Path 3345" d="M318.648,140.824A13.024,13.024,0,1,1,305.624,127.8,13.021,13.021,0,0,1,318.648,140.824Z" transform="translate(-283.837 -118.957)" fill="none" stroke="#1d1d1b" stroke-miterlimit="10" stroke-width="3"/>
      </g>
      <g id="Group_797" data-name="Group 797" transform="translate(0 231.575)">
        <path id="Path_3346" data-name="Path 3346" d="M87.2,330.114a2.849,2.849,0,0,1,2.814-2.814h31.917a2.849,2.849,0,0,1,2.814,2.814v31.917a2.849,2.849,0,0,1-2.814,2.814H90.014a2.849,2.849,0,0,1-2.814-2.814Z" transform="translate(-80.688 -320.788)" fill="none" stroke="#1d1d1b" stroke-miterlimit="10" stroke-width="3"/>
        <path id="Path_3347" data-name="Path 3347" d="M94.2,336.229a1.9,1.9,0,0,1,1.929-1.929h22.35a1.9,1.9,0,0,1,1.929,1.929v22.35a1.956,1.956,0,0,1-1.929,1.929H96.21a1.956,1.956,0,0,1-1.929-1.929v-22.35Z" transform="translate(-82.06 -322.16)" fill="none" stroke="#1d1d1b" stroke-miterlimit="10" stroke-width="3"/>
        <g id="Group_792" data-name="Group 792" transform="translate(9.487)">
          <line id="Line_3" data-name="Line 3" y2="6.512" fill="none" stroke="#1d1d1b" stroke-miterlimit="10" stroke-width="3"/>
          <line id="Line_4" data-name="Line 4" y2="6.512" transform="translate(4.422)" fill="none" stroke="#1d1d1b" stroke-miterlimit="10" stroke-width="3"/>
          <line id="Line_5" data-name="Line 5" y2="6.512" transform="translate(8.924)" fill="none" stroke="#1d1d1b" stroke-miterlimit="10" stroke-width="3"/>
          <line id="Line_6" data-name="Line 6" y2="6.512" transform="translate(13.426)" fill="none" stroke="#1d1d1b" stroke-miterlimit="10" stroke-width="3"/>
          <line id="Line_7" data-name="Line 7" y2="6.512" transform="translate(17.848)" fill="none" stroke="#1d1d1b" stroke-miterlimit="10" stroke-width="3"/>
          <line id="Line_8" data-name="Line 8" y2="6.512" transform="translate(22.35)" fill="none" stroke="#1d1d1b" stroke-miterlimit="10" stroke-width="3"/>
          <line id="Line_9" data-name="Line 9" y2="6.512" transform="translate(26.852)" fill="none" stroke="#1d1d1b" stroke-miterlimit="10" stroke-width="3"/>
          <line id="Line_10" data-name="Line 10" y2="6.512" transform="translate(31.274)" fill="none" stroke="#1d1d1b" stroke-miterlimit="10" stroke-width="3"/>
        </g>
        <g id="Group_793" data-name="Group 793" transform="translate(0 9.567)">
          <line id="Line_11" data-name="Line 11" x2="6.512" transform="translate(0 31.354)" fill="none" stroke="#1d1d1b" stroke-miterlimit="10" stroke-width="3"/>
          <line id="Line_12" data-name="Line 12" x2="6.512" transform="translate(0 26.852)" fill="none" stroke="#1d1d1b" stroke-miterlimit="10" stroke-width="3"/>
          <line id="Line_13" data-name="Line 13" x2="6.512" transform="translate(0 22.43)" fill="none" stroke="#1d1d1b" stroke-miterlimit="10" stroke-width="3"/>
          <line id="Line_14" data-name="Line 14" x2="6.512" transform="translate(0 17.928)" fill="none" stroke="#1d1d1b" stroke-miterlimit="10" stroke-width="3"/>
          <line id="Line_15" data-name="Line 15" x2="6.512" transform="translate(0 13.426)" fill="none" stroke="#1d1d1b" stroke-miterlimit="10" stroke-width="3"/>
          <line id="Line_16" data-name="Line 16" x2="6.512" transform="translate(0 9.004)" fill="none" stroke="#1d1d1b" stroke-miterlimit="10" stroke-width="3"/>
          <line id="Line_17" data-name="Line 17" x2="6.512" transform="translate(0 4.502)" fill="none" stroke="#1d1d1b" stroke-miterlimit="10" stroke-width="3"/>
          <line id="Line_18" data-name="Line 18" x2="6.512" fill="none" stroke="#1d1d1b" stroke-miterlimit="10" stroke-width="3"/>
        </g>
        <g id="Group_794" data-name="Group 794" transform="translate(44.057 9.567)">
          <line id="Line_19" data-name="Line 19" x2="6.512" transform="translate(0 31.354)" fill="none" stroke="#1d1d1b" stroke-miterlimit="10" stroke-width="3"/>
          <line id="Line_20" data-name="Line 20" x2="6.512" transform="translate(0 26.852)" fill="none" stroke="#1d1d1b" stroke-miterlimit="10" stroke-width="3"/>
          <line id="Line_21" data-name="Line 21" x2="6.512" transform="translate(0 22.43)" fill="none" stroke="#1d1d1b" stroke-miterlimit="10" stroke-width="3"/>
          <line id="Line_22" data-name="Line 22" x2="6.512" transform="translate(0 17.928)" fill="none" stroke="#1d1d1b" stroke-miterlimit="10" stroke-width="3"/>
          <line id="Line_23" data-name="Line 23" x2="6.512" transform="translate(0 13.426)" fill="none" stroke="#1d1d1b" stroke-miterlimit="10" stroke-width="3"/>
          <line id="Line_24" data-name="Line 24" x2="6.512" transform="translate(0 9.004)" fill="none" stroke="#1d1d1b" stroke-miterlimit="10" stroke-width="3"/>
          <line id="Line_25" data-name="Line 25" x2="6.512" transform="translate(0 4.502)" fill="none" stroke="#1d1d1b" stroke-miterlimit="10" stroke-width="3"/>
          <line id="Line_26" data-name="Line 26" x2="6.512" fill="none" stroke="#1d1d1b" stroke-miterlimit="10" stroke-width="3"/>
        </g>
        <g id="Group_795" data-name="Group 795" transform="translate(9.647 43.896)">
          <line id="Line_27" data-name="Line 27" y2="6.512" fill="none" stroke="#1d1d1b" stroke-miterlimit="10" stroke-width="3"/>
          <line id="Line_28" data-name="Line 28" y2="6.512" transform="translate(4.502)" fill="none" stroke="#1d1d1b" stroke-miterlimit="10" stroke-width="3"/>
          <line id="Line_29" data-name="Line 29" y2="6.512" transform="translate(8.924)" fill="none" stroke="#1d1d1b" stroke-miterlimit="10" stroke-width="3"/>
          <line id="Line_30" data-name="Line 30" y2="6.512" transform="translate(13.426)" fill="none" stroke="#1d1d1b" stroke-miterlimit="10" stroke-width="3"/>
          <line id="Line_31" data-name="Line 31" y2="6.512" transform="translate(17.928)" fill="none" stroke="#1d1d1b" stroke-miterlimit="10" stroke-width="3"/>
          <line id="Line_32" data-name="Line 32" y2="6.512" transform="translate(22.35)" fill="none" stroke="#1d1d1b" stroke-miterlimit="10" stroke-width="3"/>
          <line id="Line_33" data-name="Line 33" y2="6.512" transform="translate(26.852)" fill="none" stroke="#1d1d1b" stroke-miterlimit="10" stroke-width="3"/>
          <line id="Line_34" data-name="Line 34" y2="6.512" transform="translate(31.354)" fill="none" stroke="#1d1d1b" stroke-miterlimit="10" stroke-width="3"/>
        </g>
        <g id="Group_796" data-name="Group 796" transform="translate(15.677 13.346)">
          <path id="Path_3348" data-name="Path 3348" d="M103.906,347.872a2.653,2.653,0,0,1-5.306,0,2.608,2.608,0,0,1,2.653-2.573A2.513,2.513,0,0,1,103.906,347.872Z" transform="translate(-98.6 -337.661)" fill="none" stroke="#1d1d1b" stroke-miterlimit="10" stroke-width="3"/>
          <path id="Path_3349" data-name="Path 3349" d="M122.026,341.653a2.677,2.677,0,0,1-2.653,2.653,2.608,2.608,0,0,1-2.573-2.653,2.613,2.613,0,1,1,5.226,0Z" transform="translate(-102.168 -336.427)" fill="none" stroke="#1d1d1b" stroke-miterlimit="10" stroke-width="3"/>
          <path id="Path_3350" data-name="Path 3350" d="M113.206,358.573a2.653,2.653,0,1,1-5.306,0,2.654,2.654,0,0,1,5.306,0Z" transform="translate(-100.423 -339.76)" fill="none" stroke="#1d1d1b" stroke-miterlimit="10" stroke-width="3"/>
          <line id="Line_35" data-name="Line 35" x2="8.522" transform="translate(5.306 10.21)" fill="none" stroke="#1d1d1b" stroke-miterlimit="10" stroke-width="3"/>
          <line id="Line_36" data-name="Line 36" y2="15.516" transform="translate(10.13 0.724)" fill="none" stroke="#1d1d1b" stroke-miterlimit="10" stroke-width="3"/>
          <line id="Line_37" data-name="Line 37" y1="17.526" transform="translate(17.205 7.557)" fill="none" stroke="#1d1d1b" stroke-miterlimit="10" stroke-width="3"/>
          <line id="Line_38" data-name="Line 38" x2="7.477" transform="translate(0.08 18.813)" fill="none" stroke="#1d1d1b" stroke-miterlimit="10" stroke-width="3"/>
          <line id="Line_39" data-name="Line 39" y2="7.557" transform="translate(2.894)" fill="none" stroke="#1d1d1b" stroke-miterlimit="10" stroke-width="3"/>
        </g>
      </g>
      <g id="Group_804" data-name="Group 804" transform="translate(11.657 65.617)">
        <g id="Group_802" data-name="Group 802">
          <g id="Group_798" data-name="Group 798">
            <path id="Path_3351" data-name="Path 3351" d="M129.054,191.567A17.727,17.727,0,1,0,101,205.958c.482.482,2.412,1.206,2.412,6.673,0,0-.563,3.779,1.769,3.7h12.3c2.331.08,1.769-3.7,1.769-3.7,0-5.467,1.929-6.19,2.412-6.673A17.591,17.591,0,0,0,129.054,191.567Z" transform="translate(-93.6 -173.8)" fill="#f7d404" stroke="#1d1d1b" stroke-miterlimit="10" stroke-width="3"/>
            <path id="Path_3352" data-name="Path 3352" d="M121.557,232.488a1.784,1.784,0,0,1-1.769,1.769h-12.22a1.784,1.784,0,0,1-1.769-1.769v-4.02a1.784,1.784,0,0,1,1.769-1.769h12.22a1.784,1.784,0,0,1,1.769,1.769Z" transform="translate(-95.992 -184.171)" fill="#f7d404" stroke="#1d1d1b" stroke-miterlimit="10" stroke-width="3"/>
            <line id="Line_40" data-name="Line 40" x2="15.757" y2="1.045" transform="translate(9.567 44.459)" fill="#f7d404" stroke="#1d1d1b" stroke-miterlimit="10" stroke-width="3"/>
            <line id="Line_41" data-name="Line 41" x2="15.757" y2="1.045" transform="translate(9.808 46.951)" fill="#f7d404" stroke="#1d1d1b" stroke-miterlimit="10" stroke-width="3"/>
            <path id="Path_3353" data-name="Path 3353" d="M110.6,236.1a3.954,3.954,0,0,0,7.879,0Z" transform="translate(-96.933 -186.014)" fill="#f7d404" stroke="#1d1d1b" stroke-miterlimit="10" stroke-width="3"/>
          </g>
          <g id="Group_801" data-name="Group 801" transform="translate(4.904 5.467)">
            <path id="Path_3354" data-name="Path 3354" d="M125.426,193.463A12.863,12.863,0,1,1,112.563,180.6,12.9,12.9,0,0,1,125.426,193.463Z" transform="translate(-99.7 -180.6)" fill="#f7d404" stroke="#1d1d1b" stroke-miterlimit="10" stroke-width="3"/>
            <path id="Path_3355" data-name="Path 3355" d="M118.192,195.8a3.3,3.3,0,1,1-3.3-3.3A3.212,3.212,0,0,1,118.192,195.8Z" transform="translate(-102.033 -182.932)" fill="#f7d404" stroke="#1d1d1b" stroke-miterlimit="10" stroke-width="3"/>
            <g id="Group_799" data-name="Group 799" transform="translate(10.934 2.814)">
              <path id="Path_3356" data-name="Path 3356" d="M115.7,185.7a8.763,8.763,0,1,1,0,17.526" transform="translate(-113.771 -184.414)" fill="#f7d404" stroke="#1d1d1b" stroke-miterlimit="10" stroke-width="3"/>
              <path id="Path_3357" data-name="Path 3357" d="M115.873,185.386a1.286,1.286,0,1,1-1.286-1.286A1.27,1.27,0,0,1,115.873,185.386Z" transform="translate(-113.3 -184.1)" fill="#f7d404" stroke="#1d1d1b" stroke-miterlimit="10" stroke-width="3"/>
            </g>
            <g id="Group_800" data-name="Group 800" transform="translate(4.181 6.11)">
              <path id="Path_3358" data-name="Path 3358" d="M110.286,202.993a8.608,8.608,0,0,1-5.386-8.04,8.793,8.793,0,0,1,3.216-6.753" transform="translate(-104.9 -188.2)" fill="#f7d404" stroke="#1d1d1b" stroke-miterlimit="10" stroke-width="3"/>
              <path id="Path_3359" data-name="Path 3359" d="M113.473,206.286A1.286,1.286,0,1,1,112.186,205,1.322,1.322,0,0,1,113.473,206.286Z" transform="translate(-106.076 -191.494)" fill="#f7d404" stroke="#1d1d1b" stroke-miterlimit="10" stroke-width="3"/>
            </g>
          </g>
        </g>
        <g id="Group_803" data-name="Group 803" transform="translate(254.438 3.457)">
          <path id="Path_3360" data-name="Path 3360" d="M452.4,179.065a1.578,1.578,0,0,0-.724-.724,2.383,2.383,0,0,0-2.09,0,1.578,1.578,0,0,0-.724.724,4.039,4.039,0,0,0-.4,1.045,6.249,6.249,0,0,0-.161,1.286,7.081,7.081,0,0,0,.161,1.367,3.153,3.153,0,0,0,.4,1.045,1.578,1.578,0,0,0,.724.724,2.385,2.385,0,0,0,2.09,0,1.577,1.577,0,0,0,.724-.724,4.038,4.038,0,0,0,.4-1.045,5.889,5.889,0,0,0,0-2.733A4.914,4.914,0,0,0,452.4,179.065Zm-1.045,3.457a1.605,1.605,0,0,1-.161.724,1.757,1.757,0,0,1-.241.4.389.389,0,0,1-.563,0,1.757,1.757,0,0,1-.241-.4,1.92,1.92,0,0,1-.161-.724c0-.322-.08-.643-.08-1.045a4.248,4.248,0,0,1,.08-1.045,1.606,1.606,0,0,1,.161-.724,1.76,1.76,0,0,1,.241-.4c.08-.08.161-.08.322-.08.08,0,.241,0,.241.08a.859.859,0,0,1,.241.4,1.605,1.605,0,0,1,.161.724c0,.322.08.643.08,1.045A5.337,5.337,0,0,0,451.355,182.522Z" transform="translate(-448.3 -178.1)" fill="#1d1d1b" stroke="#1d1d1b" stroke-miterlimit="10" stroke-width="0.5"/>
          <path id="Path_3361" data-name="Path 3361" d="M458.206,180.271c.08-.08.241-.161.322-.241v3.618l.322.161-.4-.08h-.8a.346.346,0,0,0-.322.322v.322a.346.346,0,0,0,.322.322h3.216a.346.346,0,0,0,.322-.322v-.322a.346.346,0,0,0-.322-.322h-.643l-.08.322-.08-.4v-5.226a.346.346,0,0,0-.322-.322h-.563a.3.3,0,0,0-.241.08l-.563.4a1.11,1.11,0,0,0-.322.241.418.418,0,0,1-.322.161.3.3,0,0,1-.241.08c-.08,0-.161.08-.241.08-.161,0-.241.161-.241.322a.73.73,0,0,0,.241.563A.767.767,0,0,0,458.206,180.271Z" transform="translate(-450.006 -178.1)" fill="#1d1d1b" stroke="#1d1d1b" stroke-miterlimit="10" stroke-width="0.5"/>
          <path id="Path_3362" data-name="Path 3362" d="M469.4,179.065a1.578,1.578,0,0,0-.724-.724,2.383,2.383,0,0,0-2.09,0,1.578,1.578,0,0,0-.724.724,4.038,4.038,0,0,0-.4,1.045,6.247,6.247,0,0,0-.161,1.286,7.079,7.079,0,0,0,.161,1.367,3.153,3.153,0,0,0,.4,1.045,1.578,1.578,0,0,0,.724.724,2.385,2.385,0,0,0,2.09,0,1.577,1.577,0,0,0,.724-.724,4.039,4.039,0,0,0,.4-1.045,5.889,5.889,0,0,0,0-2.733A4.916,4.916,0,0,0,469.4,179.065Zm-1.045,3.457a1.605,1.605,0,0,1-.161.724,1.758,1.758,0,0,1-.241.4.389.389,0,0,1-.563,0,1.756,1.756,0,0,1-.241-.4,1.92,1.92,0,0,1-.161-.724c0-.322-.08-.643-.08-1.045a4.246,4.246,0,0,1,.08-1.045,1.606,1.606,0,0,1,.161-.724,1.759,1.759,0,0,1,.241-.4c.08-.08.161-.08.322-.08.08,0,.241,0,.241.08a.859.859,0,0,1,.241.4,1.92,1.92,0,0,1,.161.724c0,.322.08.643.08,1.045A5.337,5.337,0,0,0,468.355,182.522Z" transform="translate(-451.633 -178.1)" fill="#1d1d1b" stroke="#1d1d1b" stroke-miterlimit="10" stroke-width="0.5"/>
          <path id="Path_3363" data-name="Path 3363" d="M477.92,179.065a1.578,1.578,0,0,0-.724-.724,2.383,2.383,0,0,0-2.09,0,1.578,1.578,0,0,0-.724.724,4.039,4.039,0,0,0-.4,1.045,6.5,6.5,0,0,0-.08,1.286,7.354,7.354,0,0,0,.08,1.367,3.153,3.153,0,0,0,.4,1.045,1.578,1.578,0,0,0,.724.724,2.385,2.385,0,0,0,2.09,0,1.577,1.577,0,0,0,.724-.724,4.038,4.038,0,0,0,.4-1.045,5.889,5.889,0,0,0,0-2.733A4.916,4.916,0,0,0,477.92,179.065Zm-1.045,3.457a1.605,1.605,0,0,1-.161.724,1.757,1.757,0,0,1-.241.4.389.389,0,0,1-.563,0,1.757,1.757,0,0,1-.241-.4,1.92,1.92,0,0,1-.161-.724c0-.322-.08-.643-.08-1.045a4.248,4.248,0,0,1,.08-1.045,1.606,1.606,0,0,1,.161-.724,1.76,1.76,0,0,1,.241-.4c.08-.08.161-.08.322-.08a.483.483,0,0,1,.322.08.859.859,0,0,1,.241.4,1.605,1.605,0,0,1,.161.724c0,.322.08.643.08,1.045A2.751,2.751,0,0,0,476.875,182.522Z" transform="translate(-453.319 -178.1)" fill="#1d1d1b" stroke="#1d1d1b" stroke-miterlimit="10" stroke-width="0.5"/>
          <path id="Path_3364" data-name="Path 3364" d="M483.706,180.271c.08-.08.241-.161.322-.241v3.618l-.08.08h-.8a.346.346,0,0,0-.322.322v.322a.346.346,0,0,0,.322.322h3.216a.346.346,0,0,0,.322-.322v-.322a.346.346,0,0,0-.322-.322h-.643l-.08.322-.08-.4v-5.226a.346.346,0,0,0-.322-.322h-.563a.3.3,0,0,0-.241.08l-.563.4a1.11,1.11,0,0,0-.322.241.418.418,0,0,1-.322.161.3.3,0,0,1-.241.08c-.08,0-.161.08-.241.08-.161,0-.241.161-.241.322a.73.73,0,0,0,.241.563A.767.767,0,0,0,483.706,180.271Z" transform="translate(-455.005 -178.1)" fill="#1d1d1b" stroke="#1d1d1b" stroke-miterlimit="10" stroke-width="0.5"/>
          <path id="Path_3365" data-name="Path 3365" d="M494.9,179.065a1.578,1.578,0,0,0-.724-.724,2.383,2.383,0,0,0-2.09,0,1.578,1.578,0,0,0-.724.724,4.038,4.038,0,0,0-.4,1.045,5.547,5.547,0,0,0,0,2.653,3.153,3.153,0,0,0,.4,1.045,1.578,1.578,0,0,0,.724.724,2.385,2.385,0,0,0,2.09,0,1.577,1.577,0,0,0,.724-.724,4.039,4.039,0,0,0,.4-1.045,5.889,5.889,0,0,0,0-2.733A4.916,4.916,0,0,0,494.9,179.065Zm-1.045,3.457a1.605,1.605,0,0,1-.161.724,1.758,1.758,0,0,1-.241.4.389.389,0,0,1-.563,0,1.756,1.756,0,0,1-.241-.4,1.92,1.92,0,0,1-.161-.724c0-.322-.08-.643-.08-1.045a4.246,4.246,0,0,1,.08-1.045,1.606,1.606,0,0,1,.161-.724,1.759,1.759,0,0,1,.241-.4c.08-.08.161-.08.322-.08a.483.483,0,0,1,.322.08,1.11,1.11,0,0,1,.241.322,1.92,1.92,0,0,1,.161.724c0,.322.08.643.08,1.045A3.368,3.368,0,0,0,493.855,182.522Z" transform="translate(-456.632 -178.1)" fill="#1d1d1b" stroke="#1d1d1b" stroke-miterlimit="10" stroke-width="0.5"/>
          <path id="Path_3366" data-name="Path 3366" d="M503.42,179.065a1.578,1.578,0,0,0-.724-.724,2.383,2.383,0,0,0-2.09,0,1.578,1.578,0,0,0-.724.724,4.039,4.039,0,0,0-.4,1.045,6.5,6.5,0,0,0-.08,1.286,7.354,7.354,0,0,0,.08,1.367,3.153,3.153,0,0,0,.4,1.045,1.578,1.578,0,0,0,.724.724,2.385,2.385,0,0,0,2.09,0,1.577,1.577,0,0,0,.724-.724,4.038,4.038,0,0,0,.4-1.045,5.889,5.889,0,0,0,0-2.733A4.916,4.916,0,0,0,503.42,179.065Zm-1.045,3.457a1.605,1.605,0,0,1-.161.724,1.757,1.757,0,0,1-.241.4.389.389,0,0,1-.563,0,1.757,1.757,0,0,1-.241-.4,1.92,1.92,0,0,1-.161-.724c0-.322-.08-.643-.08-1.045a4.248,4.248,0,0,1,.08-1.045,1.606,1.606,0,0,1,.161-.724,1.759,1.759,0,0,1,.241-.4c.08-.08.161-.08.322-.08.08,0,.241,0,.241.08a.859.859,0,0,1,.241.4,1.605,1.605,0,0,1,.161.724c0,.322.08.643.08,1.045A4.946,4.946,0,0,0,502.375,182.522Z" transform="translate(-458.318 -178.1)" fill="#1d1d1b" stroke="#1d1d1b" stroke-miterlimit="10" stroke-width="0.5"/>
          <path id="Path_3367" data-name="Path 3367" d="M509.206,180.271c.08-.08.241-.161.322-.241v3.618l.322.161-.4-.08h-.8a.346.346,0,0,0-.322.322v.322a.346.346,0,0,0,.322.322h3.216a.346.346,0,0,0,.322-.322v-.322a.346.346,0,0,0-.322-.322h-.643l-.08.322-.08-.4v-5.226a.346.346,0,0,0-.322-.322h-.563a.3.3,0,0,0-.241.08l-.563.4a1.11,1.11,0,0,0-.322.241.418.418,0,0,1-.322.161.3.3,0,0,1-.241.08c-.08,0-.161.08-.241.08-.161,0-.241.161-.241.322a.73.73,0,0,0,.241.563A.767.767,0,0,0,509.206,180.271Z" transform="translate(-460.004 -178.1)" fill="#1d1d1b" stroke="#1d1d1b" stroke-miterlimit="10" stroke-width="0.5"/>
          <path id="Path_3368" data-name="Path 3368" d="M451.233,190.6h-.563a.3.3,0,0,0-.241.08l-.563.4a1.109,1.109,0,0,0-.322.241c-.08.08-.161.08-.322.161a.3.3,0,0,1-.241.08c-.08,0-.161.08-.241.08-.161,0-.241.161-.241.322a.73.73,0,0,0,.241.563.855.855,0,0,0,.965.161c.08-.08.241-.161.322-.241v3.618l-.08.08h-.8a.346.346,0,0,0-.322.322v.322a.346.346,0,0,0,.322.322h3.216a.346.346,0,0,0,.322-.322v-.322a.346.346,0,0,0-.322-.322h-.643l-.08.322-.08-.4v-5.145A.346.346,0,0,0,451.233,190.6Z" transform="translate(-448.339 -180.551)" fill="#1d1d1b" stroke="#1d1d1b" stroke-miterlimit="10" stroke-width="0.5"/>
          <path id="Path_3369" data-name="Path 3369" d="M460.9,191.565a1.578,1.578,0,0,0-.724-.724,2.383,2.383,0,0,0-2.09,0,1.578,1.578,0,0,0-.724.724,4.039,4.039,0,0,0-.4,1.045,6.249,6.249,0,0,0-.161,1.286,7.081,7.081,0,0,0,.161,1.367,3.153,3.153,0,0,0,.4,1.045,1.578,1.578,0,0,0,.724.724,2.385,2.385,0,0,0,2.09,0,1.578,1.578,0,0,0,.724-.724,4.039,4.039,0,0,0,.4-1.045,5.889,5.889,0,0,0,0-2.733A4.915,4.915,0,0,0,460.9,191.565Zm-1.045,3.457a1.605,1.605,0,0,1-.161.724,1.759,1.759,0,0,1-.241.4c-.08,0-.161.08-.322.08a.483.483,0,0,1-.322-.08,1.756,1.756,0,0,1-.241-.4,1.605,1.605,0,0,1-.161-.724c0-.322-.08-.643-.08-1.045a4.246,4.246,0,0,1,.08-1.045,1.605,1.605,0,0,1,.161-.724,1.759,1.759,0,0,1,.241-.4c.08-.08.161-.08.322-.08.08,0,.241,0,.241.08a.859.859,0,0,1,.241.4,1.605,1.605,0,0,1,.161.724c0,.322.08.643.08,1.045Z" transform="translate(-449.966 -180.551)" fill="#1d1d1b" stroke="#1d1d1b" stroke-miterlimit="10" stroke-width="0.5"/>
          <path id="Path_3370" data-name="Path 3370" d="M469.4,191.565a1.578,1.578,0,0,0-.724-.724,2.383,2.383,0,0,0-2.09,0,1.578,1.578,0,0,0-.724.724,4.038,4.038,0,0,0-.4,1.045,6.247,6.247,0,0,0-.161,1.286,7.079,7.079,0,0,0,.161,1.367,3.153,3.153,0,0,0,.4,1.045,1.578,1.578,0,0,0,.724.724,2.385,2.385,0,0,0,2.09,0,1.577,1.577,0,0,0,.724-.724,4.039,4.039,0,0,0,.4-1.045,5.547,5.547,0,0,0,0-2.653A4.038,4.038,0,0,0,469.4,191.565Zm-1.045,3.457a1.605,1.605,0,0,1-.161.724,1.758,1.758,0,0,1-.241.4.389.389,0,0,1-.563,0,1.756,1.756,0,0,1-.241-.4,1.92,1.92,0,0,1-.161-.724c0-.322-.08-.643-.08-1.045a4.246,4.246,0,0,1,.08-1.045,1.606,1.606,0,0,1,.161-.724,1.759,1.759,0,0,1,.241-.4c.08-.08.161-.08.322-.08.08,0,.241,0,.241.08a.859.859,0,0,1,.241.4,1.92,1.92,0,0,1,.161.724c0,.322.08.643.08,1.045A4.946,4.946,0,0,0,468.355,195.022Z" transform="translate(-451.633 -180.551)" fill="#1d1d1b" stroke="#1d1d1b" stroke-miterlimit="10" stroke-width="0.5"/>
          <path id="Path_3371" data-name="Path 3371" d="M476.733,190.6h-.563a.3.3,0,0,0-.241.08l-.563.4a1.109,1.109,0,0,0-.322.241c-.08.08-.161.08-.322.161a.3.3,0,0,1-.241.08c-.08,0-.161.08-.241.08-.161,0-.241.161-.241.322,0,.322.08.482.241.563a.855.855,0,0,0,.965.161c.08-.08.241-.161.322-.241v3.618l.322.161-.4-.08h-.8a.346.346,0,0,0-.322.322v.322a.346.346,0,0,0,.322.322h3.216a.346.346,0,0,0,.322-.322v-.322a.346.346,0,0,0-.322-.322h-.643a.079.079,0,0,1-.08-.08v-5.145A.534.534,0,0,0,476.733,190.6Z" transform="translate(-453.338 -180.551)" fill="#1d1d1b" stroke="#1d1d1b" stroke-miterlimit="10" stroke-width="0.5"/>
          <path id="Path_3372" data-name="Path 3372" d="M486.42,191.565a1.578,1.578,0,0,0-.724-.724,2.383,2.383,0,0,0-2.09,0,1.578,1.578,0,0,0-.724.724,4.039,4.039,0,0,0-.4,1.045,6.5,6.5,0,0,0-.08,1.286,7.357,7.357,0,0,0,.08,1.367,3.153,3.153,0,0,0,.4,1.045,1.578,1.578,0,0,0,.724.724,2.385,2.385,0,0,0,2.09,0,1.578,1.578,0,0,0,.724-.724,4.039,4.039,0,0,0,.4-1.045,7.081,7.081,0,0,0,.161-1.367,3.761,3.761,0,0,0-.161-1.367A4.915,4.915,0,0,0,486.42,191.565Zm-1.045,3.457a1.605,1.605,0,0,1-.161.724,1.759,1.759,0,0,1-.241.4.389.389,0,0,1-.563,0,1.756,1.756,0,0,1-.241-.4,1.92,1.92,0,0,1-.161-.724c0-.322-.08-.643-.08-1.045a4.246,4.246,0,0,1,.08-1.045,1.605,1.605,0,0,1,.161-.724,1.758,1.758,0,0,1,.241-.4c.08-.08.161-.08.322-.08a.483.483,0,0,1,.322.08,1.755,1.755,0,0,1,.241.4,1.92,1.92,0,0,1,.161.724c0,.322.08.643.08,1.045A2.555,2.555,0,0,0,485.375,195.022Z" transform="translate(-454.985 -180.551)" fill="#1d1d1b" stroke="#1d1d1b" stroke-miterlimit="10" stroke-width="0.5"/>
          <path id="Path_3373" data-name="Path 3373" d="M493.733,190.6h-.563a.3.3,0,0,0-.241.08l-.563.4a1.11,1.11,0,0,0-.322.241.418.418,0,0,1-.322.161.3.3,0,0,1-.241.08c-.08,0-.161.08-.241.08-.161,0-.241.161-.241.322a.73.73,0,0,0,.241.563.855.855,0,0,0,.965.161c.08-.08.241-.161.322-.241v3.618l-.08.08h-.8a.346.346,0,0,0-.322.322v.322a.346.346,0,0,0,.322.322h3.216a.346.346,0,0,0,.322-.322v-.322a.346.346,0,0,0-.322-.322h-.643l-.08.322-.08-.4v-5.145A.346.346,0,0,0,493.733,190.6Z" transform="translate(-456.671 -180.551)" fill="#1d1d1b" stroke="#1d1d1b" stroke-miterlimit="10" stroke-width="0.5"/>
          <path id="Path_3374" data-name="Path 3374" d="M503.42,191.565a1.578,1.578,0,0,0-.724-.724,2.383,2.383,0,0,0-2.09,0,1.578,1.578,0,0,0-.724.724,4.039,4.039,0,0,0-.4,1.045,6.5,6.5,0,0,0-.08,1.286,7.354,7.354,0,0,0,.08,1.367,3.153,3.153,0,0,0,.4,1.045,1.578,1.578,0,0,0,.724.724,2.385,2.385,0,0,0,2.09,0,1.577,1.577,0,0,0,.724-.724,4.038,4.038,0,0,0,.4-1.045,5.889,5.889,0,0,0,0-2.733A4.916,4.916,0,0,0,503.42,191.565Zm-1.045,3.457a1.605,1.605,0,0,1-.161.724,1.757,1.757,0,0,1-.241.4.389.389,0,0,1-.563,0,1.757,1.757,0,0,1-.241-.4,1.92,1.92,0,0,1-.161-.724c0-.322-.08-.643-.08-1.045a4.248,4.248,0,0,1,.08-1.045,1.606,1.606,0,0,1,.161-.724,1.759,1.759,0,0,1,.241-.4c.08-.08.161-.08.322-.08.08,0,.241,0,.241.08a.859.859,0,0,1,.241.4,1.605,1.605,0,0,1,.161.724c0,.322.08.643.08,1.045A4.946,4.946,0,0,0,502.375,195.022Z" transform="translate(-458.318 -180.551)" fill="#1d1d1b" stroke="#1d1d1b" stroke-miterlimit="10" stroke-width="0.5"/>
          <path id="Path_3375" data-name="Path 3375" d="M509.226,192.69c.08-.08.241-.161.322-.241v3.618l-.08.08h-.8a.346.346,0,0,0-.322.322v.322a.346.346,0,0,0,.322.322h3.216a.346.346,0,0,0,.322-.322v-.322a.346.346,0,0,0-.322-.322h-.643a.079.079,0,0,1-.08-.08v-5.145a.346.346,0,0,0-.322-.322h-.563a.3.3,0,0,0-.241.08l-.563.4a1.109,1.109,0,0,0-.322.241.418.418,0,0,1-.322.161.3.3,0,0,1-.241.08c-.08,0-.161.08-.241.08-.161,0-.241.161-.241.322a.73.73,0,0,0,.241.563A.571.571,0,0,0,509.226,192.69Z" transform="translate(-460.024 -180.551)" fill="#1d1d1b" stroke="#1d1d1b" stroke-miterlimit="10" stroke-width="0.5"/>
          <path id="Path_3376" data-name="Path 3376" d="M452.4,203.965a1.578,1.578,0,0,0-.724-.724,2.385,2.385,0,0,0-2.09,0,1.577,1.577,0,0,0-.724.724,4.039,4.039,0,0,0-.4,1.045,6.249,6.249,0,0,0-.161,1.286,7.081,7.081,0,0,0,.161,1.367,3.153,3.153,0,0,0,.4,1.045,1.578,1.578,0,0,0,.724.724,2.385,2.385,0,0,0,2.09,0,1.577,1.577,0,0,0,.724-.724,4.038,4.038,0,0,0,.4-1.045,5.889,5.889,0,0,0,0-2.733A8.361,8.361,0,0,0,452.4,203.965Zm-1.045,3.537a1.605,1.605,0,0,1-.161.724,1.757,1.757,0,0,1-.241.4.389.389,0,0,1-.563,0,1.757,1.757,0,0,1-.241-.4,1.92,1.92,0,0,1-.161-.724c0-.322-.08-.643-.08-1.045a4.248,4.248,0,0,1,.08-1.045,1.606,1.606,0,0,1,.161-.724,1.76,1.76,0,0,1,.241-.4c.08-.08.161-.08.322-.08a.483.483,0,0,1,.322.08.859.859,0,0,1,.241.4,1.605,1.605,0,0,1,.161.724c0,.322.08.643.08,1.045A2.374,2.374,0,0,0,451.355,207.5Z" transform="translate(-448.3 -182.982)" fill="#1d1d1b" stroke="#1d1d1b" stroke-miterlimit="10" stroke-width="0.5"/>
          <path id="Path_3377" data-name="Path 3377" d="M460.9,203.965a1.578,1.578,0,0,0-.724-.724,2.383,2.383,0,0,0-2.09,0,1.578,1.578,0,0,0-.724.724,4.039,4.039,0,0,0-.4,1.045,6.249,6.249,0,0,0-.161,1.286,7.081,7.081,0,0,0,.161,1.367,3.153,3.153,0,0,0,.4,1.045,1.578,1.578,0,0,0,.724.724,2.385,2.385,0,0,0,2.09,0,1.578,1.578,0,0,0,.724-.724,4.039,4.039,0,0,0,.4-1.045,5.889,5.889,0,0,0,0-2.733A8.362,8.362,0,0,0,460.9,203.965Zm-1.045,3.537a1.605,1.605,0,0,1-.161.724,1.759,1.759,0,0,1-.241.4.389.389,0,0,1-.563,0,1.756,1.756,0,0,1-.241-.4,1.605,1.605,0,0,1-.161-.724c0-.322-.08-.643-.08-1.045a4.246,4.246,0,0,1,.08-1.045,1.605,1.605,0,0,1,.161-.724,1.758,1.758,0,0,1,.241-.4c.08-.08.161-.08.322-.08a.483.483,0,0,1,.322.08.859.859,0,0,1,.241.4,1.92,1.92,0,0,1,.161.724c0,.322.08.643.08,1.045A2.375,2.375,0,0,0,459.855,207.5Z" transform="translate(-449.966 -182.982)" fill="#1d1d1b" stroke="#1d1d1b" stroke-miterlimit="10" stroke-width="0.5"/>
          <path id="Path_3378" data-name="Path 3378" d="M468.214,203.1h-.563a.3.3,0,0,0-.241.08l-.563.4c-.161.08-.241.161-.4.241-.08.08-.161.08-.322.161a.3.3,0,0,1-.241.08c-.08,0-.161.08-.241.08-.161,0-.241.161-.241.322a.73.73,0,0,0,.241.563.855.855,0,0,0,.965.161c.08-.08.241-.161.322-.241v3.618l-.08.08h-.8a.346.346,0,0,0-.322.322v.322a.346.346,0,0,0,.322.322h3.216a.346.346,0,0,0,.322-.322v-.322a.346.346,0,0,0-.322-.322h-.643l-.08.322-.08-.4v-5.226C468.535,203.261,468.375,203.1,468.214,203.1Z" transform="translate(-451.652 -183.001)" fill="#1d1d1b" stroke="#1d1d1b" stroke-miterlimit="10" stroke-width="0.5"/>
          <path id="Path_3379" data-name="Path 3379" d="M477.92,203.965a1.578,1.578,0,0,0-.724-.724,2.383,2.383,0,0,0-2.09,0,1.577,1.577,0,0,0-.724.724,4.039,4.039,0,0,0-.4,1.045,6.914,6.914,0,0,0-.08,1.286,7.354,7.354,0,0,0,.08,1.367,3.153,3.153,0,0,0,.4,1.045,1.578,1.578,0,0,0,.724.724,2.385,2.385,0,0,0,2.09,0,1.577,1.577,0,0,0,.724-.724,4.038,4.038,0,0,0,.4-1.045,5.889,5.889,0,0,0,0-2.733A8.366,8.366,0,0,0,477.92,203.965Zm-1.045,3.537a1.605,1.605,0,0,1-.161.724,1.757,1.757,0,0,1-.241.4.389.389,0,0,1-.563,0,1.757,1.757,0,0,1-.241-.4,1.92,1.92,0,0,1-.161-.724c0-.322-.08-.643-.08-1.045a4.248,4.248,0,0,1,.08-1.045,1.606,1.606,0,0,1,.161-.724,1.76,1.76,0,0,1,.241-.4c.08-.08.161-.08.322-.08a.483.483,0,0,1,.322.08.859.859,0,0,1,.241.4,1.605,1.605,0,0,1,.161.724c0,.322.08.643.08,1.045A2.555,2.555,0,0,0,476.875,207.5Z" transform="translate(-453.319 -182.982)" fill="#1d1d1b" stroke="#1d1d1b" stroke-miterlimit="10" stroke-width="0.5"/>
          <path id="Path_3380" data-name="Path 3380" d="M485.233,203.1h-.563a.3.3,0,0,0-.241.08l-.563.4a1.11,1.11,0,0,0-.322.241.418.418,0,0,1-.322.161.3.3,0,0,1-.241.08c-.08,0-.161.08-.241.08-.161.08-.241.161-.241.322a.73.73,0,0,0,.241.563.855.855,0,0,0,.965.161c.08-.08.241-.161.322-.241v3.618l-.08.08h-.8a.346.346,0,0,0-.322.322v.322a.346.346,0,0,0,.322.322h3.216a.346.346,0,0,0,.322-.322v-.322a.346.346,0,0,0-.322-.322h-.643l-.08.322-.08-.4v-5.226A.359.359,0,0,0,485.233,203.1Z" transform="translate(-455.005 -183.001)" fill="#1d1d1b" stroke="#1d1d1b" stroke-miterlimit="10" stroke-width="0.5"/>
          <path id="Path_3381" data-name="Path 3381" d="M494.9,203.965a1.578,1.578,0,0,0-.724-.724,2.385,2.385,0,0,0-2.09,0,1.577,1.577,0,0,0-.724.724,4.038,4.038,0,0,0-.4,1.045,7.035,7.035,0,0,0-.161,1.286,7.919,7.919,0,0,0,.161,1.367,3.152,3.152,0,0,0,.4,1.045,1.578,1.578,0,0,0,.724.724,2.385,2.385,0,0,0,2.09,0,1.577,1.577,0,0,0,.724-.724,4.039,4.039,0,0,0,.4-1.045,5.889,5.889,0,0,0,0-2.733A8.366,8.366,0,0,0,494.9,203.965Zm-1.045,3.537a1.605,1.605,0,0,1-.161.724,1.758,1.758,0,0,1-.241.4.389.389,0,0,1-.563,0,1.756,1.756,0,0,1-.241-.4,1.92,1.92,0,0,1-.161-.724c0-.322-.08-.643-.08-1.045a4.246,4.246,0,0,1,.08-1.045,1.606,1.606,0,0,1,.161-.724,1.759,1.759,0,0,1,.241-.4c.08-.08.161-.08.322-.08a.483.483,0,0,1,.322.08.86.86,0,0,1,.241.4,1.92,1.92,0,0,1,.161.724c0,.322.08.643.08,1.045A2.375,2.375,0,0,0,493.855,207.5Z" transform="translate(-456.632 -182.982)" fill="#1d1d1b" stroke="#1d1d1b" stroke-miterlimit="10" stroke-width="0.5"/>
          <path id="Path_3382" data-name="Path 3382" d="M503.42,203.965a1.578,1.578,0,0,0-.724-.724,2.383,2.383,0,0,0-2.09,0,1.577,1.577,0,0,0-.724.724,4.039,4.039,0,0,0-.4,1.045,6.914,6.914,0,0,0-.08,1.286,7.354,7.354,0,0,0,.08,1.367,3.153,3.153,0,0,0,.4,1.045,1.578,1.578,0,0,0,.724.724,2.385,2.385,0,0,0,2.09,0,1.577,1.577,0,0,0,.724-.724,4.038,4.038,0,0,0,.4-1.045,5.889,5.889,0,0,0,0-2.733A8.366,8.366,0,0,0,503.42,203.965Zm-1.045,3.537a1.605,1.605,0,0,1-.161.724,1.757,1.757,0,0,1-.241.4.389.389,0,0,1-.563,0,1.757,1.757,0,0,1-.241-.4,1.92,1.92,0,0,1-.161-.724c0-.322-.08-.643-.08-1.045a4.248,4.248,0,0,1,.08-1.045,1.606,1.606,0,0,1,.161-.724,1.759,1.759,0,0,1,.241-.4c.08-.08.161-.08.322-.08.08,0,.241,0,.241.08a.859.859,0,0,1,.241.4,1.605,1.605,0,0,1,.161.724c0,.322.08.643.08,1.045A4.585,4.585,0,0,0,502.375,207.5Z" transform="translate(-458.318 -182.982)" fill="#1d1d1b" stroke="#1d1d1b" stroke-miterlimit="10" stroke-width="0.5"/>
          <path id="Path_3383" data-name="Path 3383" d="M509.206,205.171c.08-.08.241-.161.322-.241v3.618l-.08.08h-.8a.346.346,0,0,0-.322.322v.322a.346.346,0,0,0,.322.322h3.216a.346.346,0,0,0,.322-.322v-.322a.346.346,0,0,0-.322-.322h-.643l-.08.322-.08-.4v-5.226a.346.346,0,0,0-.322-.322h-.563a.3.3,0,0,0-.241.08l-.563.4a1.11,1.11,0,0,0-.322.241.418.418,0,0,1-.322.161.3.3,0,0,1-.241.08c-.08,0-.161.08-.241.08-.161,0-.241.161-.241.322a.73.73,0,0,0,.241.563A.688.688,0,0,0,509.206,205.171Z" transform="translate(-460.004 -182.982)" fill="#1d1d1b" stroke="#1d1d1b" stroke-miterlimit="10" stroke-width="0.5"/>
          <path id="Path_3384" data-name="Path 3384" d="M451.214,215.5h-.563a.3.3,0,0,0-.241.08l-.563.4c-.161.08-.241.161-.4.241-.08.08-.161.08-.322.161a.3.3,0,0,1-.241.08c-.08,0-.161.08-.241.08-.161,0-.241.161-.241.322,0,.322.08.482.241.563a.855.855,0,0,0,.965.161c.08-.08.241-.161.322-.241v3.618l-.08.08h-.8a.346.346,0,0,0-.322.322v.322a.346.346,0,0,0,.322.322h3.216a.346.346,0,0,0,.322-.322v-.161a.346.346,0,0,0-.322-.322h-.643l-.08-.08V215.9A.368.368,0,0,0,451.214,215.5Z" transform="translate(-448.32 -185.432)" fill="#1d1d1b" stroke="#1d1d1b" stroke-miterlimit="10" stroke-width="0.5"/>
          <path id="Path_3385" data-name="Path 3385" d="M460.8,221.147h-.643l-.08-.08v-5.145a.346.346,0,0,0-.322-.322h-.563a.3.3,0,0,0-.241.08l-.563.4a1.11,1.11,0,0,0-.322.241c-.08.08-.161.161-.241.161a.3.3,0,0,1-.241.08c-.08,0-.161.08-.241.08-.161,0-.241.161-.241.322a.73.73,0,0,0,.241.563.855.855,0,0,0,.965.161c.08-.08.241-.161.322-.241v3.618l.322.161-.4-.08h-.8a.346.346,0,0,0-.322.322v.322a.346.346,0,0,0,.322.322h3.216a.346.346,0,0,0,.322-.322v-.241A.51.51,0,0,0,460.8,221.147Z" transform="translate(-450.025 -185.452)" fill="#1d1d1b" stroke="#1d1d1b" stroke-miterlimit="10" stroke-width="0.5"/>
          <path id="Path_3386" data-name="Path 3386" d="M469.4,216.465a1.578,1.578,0,0,0-.724-.724,2.383,2.383,0,0,0-2.09,0,1.577,1.577,0,0,0-.724.724,4.038,4.038,0,0,0-.4,1.045,6.247,6.247,0,0,0-.161,1.286,7.079,7.079,0,0,0,.161,1.367,3.152,3.152,0,0,0,.4,1.045,1.578,1.578,0,0,0,.724.724,2.385,2.385,0,0,0,2.09,0,1.577,1.577,0,0,0,.724-.724,4.039,4.039,0,0,0,.4-1.045,5.889,5.889,0,0,0,0-2.733A4.916,4.916,0,0,0,469.4,216.465Zm-1.045,3.457a1.605,1.605,0,0,1-.161.724,1.758,1.758,0,0,1-.241.4.389.389,0,0,1-.563,0,1.756,1.756,0,0,1-.241-.4,1.92,1.92,0,0,1-.161-.724c0-.322-.08-.643-.08-1.045a4.246,4.246,0,0,1,.08-1.045,1.606,1.606,0,0,1,.161-.724,1.759,1.759,0,0,1,.241-.4c.08-.08.161-.08.322-.08.08,0,.241,0,.241.08a.859.859,0,0,1,.241.4,1.92,1.92,0,0,1,.161.724c0,.322.08.643.08,1.045A4.946,4.946,0,0,0,468.355,219.922Z" transform="translate(-451.633 -185.432)" fill="#1d1d1b" stroke="#1d1d1b" stroke-miterlimit="10" stroke-width="0.5"/>
          <path id="Path_3387" data-name="Path 3387" d="M476.733,215.5h-.563a.3.3,0,0,0-.241.08l-.563.4a1.109,1.109,0,0,0-.322.241.418.418,0,0,1-.322.161.3.3,0,0,1-.241.08c-.08,0-.161.08-.241.08-.161,0-.241.161-.241.322,0,.322.08.482.241.563a.855.855,0,0,0,.965.161c.08-.08.241-.161.322-.241v3.618l.322.161-.4-.08h-.8a.346.346,0,0,0-.322.322v.322a.346.346,0,0,0,.322.322h3.216a.346.346,0,0,0,.322-.322v-.161a.346.346,0,0,0-.322-.322h-.643l-.08-.08V215.9C477.055,215.661,476.894,215.5,476.733,215.5Z" transform="translate(-453.338 -185.432)" fill="#1d1d1b" stroke="#1d1d1b" stroke-miterlimit="10" stroke-width="0.5"/>
          <path id="Path_3388" data-name="Path 3388" d="M486.42,216.465a1.578,1.578,0,0,0-.724-.724,2.383,2.383,0,0,0-2.09,0,1.578,1.578,0,0,0-.724.724,4.039,4.039,0,0,0-.4,1.045,6.5,6.5,0,0,0-.08,1.286,7.357,7.357,0,0,0,.08,1.367,3.153,3.153,0,0,0,.4,1.045,1.578,1.578,0,0,0,.724.724,2.385,2.385,0,0,0,2.09,0,1.578,1.578,0,0,0,.724-.724,4.039,4.039,0,0,0,.4-1.045,7.081,7.081,0,0,0,.161-1.367,3.761,3.761,0,0,0-.161-1.367A4.915,4.915,0,0,0,486.42,216.465Zm-1.045,3.457a1.605,1.605,0,0,1-.161.724,1.759,1.759,0,0,1-.241.4.389.389,0,0,1-.563,0,1.756,1.756,0,0,1-.241-.4,1.92,1.92,0,0,1-.161-.724c0-.322-.08-.643-.08-1.045a4.246,4.246,0,0,1,.08-1.045,1.605,1.605,0,0,1,.161-.724,1.758,1.758,0,0,1,.241-.4c.08-.08.161-.08.322-.08.08,0,.241,0,.241.08a1.758,1.758,0,0,1,.241.4,1.92,1.92,0,0,1,.161.724c0,.322.08.643.08,1.045A4.948,4.948,0,0,0,485.375,219.922Z" transform="translate(-454.985 -185.432)" fill="#1d1d1b" stroke="#1d1d1b" stroke-miterlimit="10" stroke-width="0.5"/>
          <path id="Path_3389" data-name="Path 3389" d="M494.9,216.465a1.578,1.578,0,0,0-.724-.724,2.383,2.383,0,0,0-2.09,0,1.577,1.577,0,0,0-.724.724,4.038,4.038,0,0,0-.4,1.045,5.547,5.547,0,0,0,0,2.653,3.152,3.152,0,0,0,.4,1.045,1.578,1.578,0,0,0,.724.724,2.385,2.385,0,0,0,2.09,0,1.577,1.577,0,0,0,.724-.724,4.039,4.039,0,0,0,.4-1.045,5.889,5.889,0,0,0,0-2.733A4.916,4.916,0,0,0,494.9,216.465Zm-1.045,3.457a1.605,1.605,0,0,1-.161.724,1.758,1.758,0,0,1-.241.4.389.389,0,0,1-.563,0,1.756,1.756,0,0,1-.241-.4,1.92,1.92,0,0,1-.161-.724c0-.322-.08-.643-.08-1.045a4.246,4.246,0,0,1,.08-1.045,1.606,1.606,0,0,1,.161-.724,1.759,1.759,0,0,1,.241-.4c.08-.08.161-.08.322-.08.08,0,.241,0,.241.08a1.757,1.757,0,0,1,.241.4,1.92,1.92,0,0,1,.161.724c0,.322.08.643.08,1.045A4.946,4.946,0,0,0,493.855,219.922Z" transform="translate(-456.632 -185.432)" fill="#1d1d1b" stroke="#1d1d1b" stroke-miterlimit="10" stroke-width="0.5"/>
          <path id="Path_3390" data-name="Path 3390" d="M502.233,215.5h-.563a.3.3,0,0,0-.241.08l-.563.4a1.109,1.109,0,0,0-.322.241.418.418,0,0,1-.322.161.3.3,0,0,1-.241.08c-.08,0-.161.08-.241.08-.161,0-.241.161-.241.322a.73.73,0,0,0,.241.563.855.855,0,0,0,.965.161c.08-.08.241-.161.322-.241v3.618l.322.161-.4-.08h-.8a.346.346,0,0,0-.322.322v.322a.346.346,0,0,0,.322.322h3.216a.346.346,0,0,0,.322-.322v-.161a.346.346,0,0,0-.322-.322h-.643l-.08-.08V215.9C502.555,215.661,502.394,215.5,502.233,215.5Z" transform="translate(-458.338 -185.432)" fill="#1d1d1b" stroke="#1d1d1b" stroke-miterlimit="10" stroke-width="0.5"/>
          <path id="Path_3391" data-name="Path 3391" d="M512.322,217.51a3.152,3.152,0,0,0-.4-1.045,1.578,1.578,0,0,0-.724-.724,2.383,2.383,0,0,0-2.09,0,1.578,1.578,0,0,0-.724.724,4.039,4.039,0,0,0-.4,1.045,6.5,6.5,0,0,0-.08,1.286c0,.482.08.965.08,1.367a3.153,3.153,0,0,0,.4,1.045,1.578,1.578,0,0,0,.724.724,2.385,2.385,0,0,0,2.09,0,1.578,1.578,0,0,0,.724-.724,4.039,4.039,0,0,0,.4-1.045,6.381,6.381,0,0,0,.161-1.367A7.038,7.038,0,0,0,512.322,217.51Zm-1.447,2.412a1.605,1.605,0,0,1-.161.724,1.758,1.758,0,0,1-.241.4.389.389,0,0,1-.563,0,1.755,1.755,0,0,1-.241-.4,1.92,1.92,0,0,1-.161-.724c0-.322-.08-.643-.08-1.045a4.246,4.246,0,0,1,.08-1.045,1.605,1.605,0,0,1,.161-.724,1.758,1.758,0,0,1,.241-.4c.08-.08.161-.08.322-.08.08,0,.241,0,.241.08a.86.86,0,0,1,.241.4,1.92,1.92,0,0,1,.161.724c0,.322.08.643.08,1.045A4.948,4.948,0,0,0,510.875,219.922Z" transform="translate(-459.984 -185.432)" fill="#1d1d1b" stroke="#1d1d1b" stroke-miterlimit="10" stroke-width="0.5"/>
          <path id="Path_3392" data-name="Path 3392" d="M452.4,228.957a1.578,1.578,0,0,0-.724-.724,2.147,2.147,0,0,0-2.09,0,1.577,1.577,0,0,0-.724.724,4.039,4.039,0,0,0-.4,1.045,6.249,6.249,0,0,0-.161,1.286,7.081,7.081,0,0,0,.161,1.367,3.153,3.153,0,0,0,.4,1.045,1.578,1.578,0,0,0,.724.724,2.385,2.385,0,0,0,2.09,0,1.577,1.577,0,0,0,.724-.724,4.038,4.038,0,0,0,.4-1.045,5.889,5.889,0,0,0,0-2.733A3.478,3.478,0,0,0,452.4,228.957Zm-1.045,3.457a1.605,1.605,0,0,1-.161.724,1.757,1.757,0,0,1-.241.4.389.389,0,0,1-.563,0,1.757,1.757,0,0,1-.241-.4,1.92,1.92,0,0,1-.161-.724c0-.322-.08-.643-.08-1.045a4.248,4.248,0,0,1,.08-1.045,1.606,1.606,0,0,1,.161-.724,1.76,1.76,0,0,1,.241-.4c.08-.08.161-.08.322-.08.08,0,.241,0,.241.08a1.757,1.757,0,0,1,.241.4,1.605,1.605,0,0,1,.161.724c0,.322.08.643.08,1.045A4.585,4.585,0,0,0,451.355,232.414Z" transform="translate(-448.3 -187.875)" fill="#1d1d1b" stroke="#1d1d1b" stroke-miterlimit="10" stroke-width="0.5"/>
          <path id="Path_3393" data-name="Path 3393" d="M460.779,233.628h-.643l-.08-.08v-5.226a.346.346,0,0,0-.322-.322h-.563a.3.3,0,0,0-.241.08l-.563.4c-.161.08-.241.161-.4.241-.08.08-.161.161-.241.161s-.161.08-.241.08-.161.08-.241.08c-.161.08-.241.161-.241.322a.73.73,0,0,0,.241.563.855.855,0,0,0,.965.161c.08-.08.241-.161.322-.241v3.618l.322.161-.4-.08h-.8a.346.346,0,0,0-.322.322v.322a.346.346,0,0,0,.322.322h3.216a.346.346,0,0,0,.322-.322v-.322C461.181,233.788,461.02,233.628,460.779,233.628Z" transform="translate(-450.006 -187.883)" fill="#1d1d1b" stroke="#1d1d1b" stroke-miterlimit="10" stroke-width="0.5"/>
          <path id="Path_3394" data-name="Path 3394" d="M469.259,233.628h-.643l-.08-.08v-5.226a.346.346,0,0,0-.322-.322h-.563a.3.3,0,0,0-.241.08l-.563.4c-.161.08-.241.161-.4.241a.418.418,0,0,1-.322.161.3.3,0,0,1-.241.08c-.08,0-.161.08-.241.08-.161.08-.241.161-.241.322a.73.73,0,0,0,.241.563.855.855,0,0,0,.965.161c.08-.08.241-.161.322-.241v3.618l.322.161-.4-.08h-.8a.346.346,0,0,0-.322.322v.322a.346.346,0,0,0,.322.322h3.216a.346.346,0,0,0,.322-.322v-.322C469.661,233.788,469.5,233.628,469.259,233.628Z" transform="translate(-451.652 -187.883)" fill="#1d1d1b" stroke="#1d1d1b" stroke-miterlimit="10" stroke-width="0.5"/>
          <path id="Path_3395" data-name="Path 3395" d="M477.92,228.965a1.578,1.578,0,0,0-.724-.724,2.383,2.383,0,0,0-2.09,0,1.577,1.577,0,0,0-.724.724,4.039,4.039,0,0,0-.4,1.045,6.914,6.914,0,0,0-.08,1.286,7.8,7.8,0,0,0,.08,1.367,3.153,3.153,0,0,0,.4,1.045,1.578,1.578,0,0,0,.724.724,2.385,2.385,0,0,0,2.09,0,1.577,1.577,0,0,0,.724-.724,4.038,4.038,0,0,0,.4-1.045,5.889,5.889,0,0,0,0-2.733A3.479,3.479,0,0,0,477.92,228.965Zm-1.045,3.457a1.605,1.605,0,0,1-.161.724,1.757,1.757,0,0,1-.241.4.479.479,0,0,1-.563,0,1.757,1.757,0,0,1-.241-.4,1.92,1.92,0,0,1-.161-.724c0-.322-.08-.643-.08-1.045a4.248,4.248,0,0,1,.08-1.045,1.606,1.606,0,0,1,.161-.724,1.76,1.76,0,0,1,.241-.4c.08-.08.161-.08.322-.08a.483.483,0,0,1,.322.08.859.859,0,0,1,.241.4,1.605,1.605,0,0,1,.161.724c0,.322.08.643.08,1.045A2.555,2.555,0,0,0,476.875,232.422Z" transform="translate(-453.319 -187.883)" fill="#1d1d1b" stroke="#1d1d1b" stroke-miterlimit="10" stroke-width="0.5"/>
          <path id="Path_3396" data-name="Path 3396" d="M486.379,233.628h-.643l-.08-.08v-5.226a.346.346,0,0,0-.322-.322h-.563a.3.3,0,0,0-.241.08l-.563.4a1.109,1.109,0,0,0-.322.241.418.418,0,0,1-.322.161.3.3,0,0,1-.241.08c-.08,0-.161.08-.241.08-.161.08-.241.161-.241.322a.73.73,0,0,0,.241.563.855.855,0,0,0,.965.161c.08-.08.241-.161.322-.241v3.618l-.08.08h-.8a.346.346,0,0,0-.322.322v.322a.346.346,0,0,0,.322.322h3.216a.346.346,0,0,0,.322-.322v-.322A.684.684,0,0,0,486.379,233.628Z" transform="translate(-455.024 -187.883)" fill="#1d1d1b" stroke="#1d1d1b" stroke-miterlimit="10" stroke-width="0.5"/>
          <path id="Path_3397" data-name="Path 3397" d="M494.9,228.965a1.578,1.578,0,0,0-.724-.724,2.383,2.383,0,0,0-2.09,0,1.577,1.577,0,0,0-.724.724,4.038,4.038,0,0,0-.4,1.045,5.547,5.547,0,0,0,0,2.653,3.152,3.152,0,0,0,.4,1.045,1.578,1.578,0,0,0,.724.724,2.385,2.385,0,0,0,2.09,0,1.577,1.577,0,0,0,.724-.724,4.039,4.039,0,0,0,.4-1.045,5.889,5.889,0,0,0,0-2.733A3.479,3.479,0,0,0,494.9,228.965Zm-1.045,3.457a1.605,1.605,0,0,1-.161.724,1.758,1.758,0,0,1-.241.4.389.389,0,0,1-.563,0,1.756,1.756,0,0,1-.241-.4,1.92,1.92,0,0,1-.161-.724c0-.322-.08-.643-.08-1.045a4.246,4.246,0,0,1,.08-1.045,1.606,1.606,0,0,1,.161-.724,1.759,1.759,0,0,1,.241-.4c.08-.08.161-.08.322-.08.08,0,.241,0,.241.08a1.757,1.757,0,0,1,.241.4,1.92,1.92,0,0,1,.161.724c0,.322.08.643.08,1.045A4.585,4.585,0,0,0,493.855,232.422Z" transform="translate(-456.632 -187.883)" fill="#1d1d1b" stroke="#1d1d1b" stroke-miterlimit="10" stroke-width="0.5"/>
          <path id="Path_3398" data-name="Path 3398" d="M503.42,228.965a1.578,1.578,0,0,0-.724-.724,2.383,2.383,0,0,0-2.09,0,1.577,1.577,0,0,0-.724.724,4.039,4.039,0,0,0-.4,1.045,6.914,6.914,0,0,0-.08,1.286,7.8,7.8,0,0,0,.08,1.367,3.153,3.153,0,0,0,.4,1.045,1.578,1.578,0,0,0,.724.724,2.385,2.385,0,0,0,2.09,0,1.577,1.577,0,0,0,.724-.724,4.038,4.038,0,0,0,.4-1.045,5.889,5.889,0,0,0,0-2.733A3.479,3.479,0,0,0,503.42,228.965Zm-1.045,3.457a1.605,1.605,0,0,1-.161.724,1.757,1.757,0,0,1-.241.4.389.389,0,0,1-.563,0,1.757,1.757,0,0,1-.241-.4,2.348,2.348,0,0,1-.161-.724c0-.322-.08-.643-.08-1.045a4.248,4.248,0,0,1,.08-1.045,1.606,1.606,0,0,1,.161-.724,1.759,1.759,0,0,1,.241-.4c.08-.08.161-.08.322-.08.08,0,.241,0,.241.08a.859.859,0,0,1,.241.4,1.605,1.605,0,0,1,.161.724c0,.322.08.643.08,1.045A4.585,4.585,0,0,0,502.375,232.422Z" transform="translate(-458.318 -187.883)" fill="#1d1d1b" stroke="#1d1d1b" stroke-miterlimit="10" stroke-width="0.5"/>
          <path id="Path_3399" data-name="Path 3399" d="M511.879,233.628h-.643l-.08-.08v-5.226a.346.346,0,0,0-.322-.322h-.563a.3.3,0,0,0-.241.08l-.563.4a1.109,1.109,0,0,0-.322.241.418.418,0,0,1-.322.161.3.3,0,0,1-.241.08c-.08,0-.161.08-.241.08-.161.08-.241.161-.241.322a.73.73,0,0,0,.241.563.855.855,0,0,0,.965.161c.08-.08.241-.161.322-.241v3.618l.322.161-.4-.08h-.8a.346.346,0,0,0-.322.322v.322a.346.346,0,0,0,.322.322h3.216a.346.346,0,0,0,.322-.322v-.322A.684.684,0,0,0,511.879,233.628Z" transform="translate(-460.024 -187.883)" fill="#1d1d1b" stroke="#1d1d1b" stroke-miterlimit="10" stroke-width="0.5"/>
        </g>
      </g>
      <g id="Group_807" data-name="Group 807" transform="translate(291.822 231.495)">
        <g id="Group_805" data-name="Group 805" transform="translate(0 0.322)">
          <path id="Path_3400" data-name="Path 3400" d="M502.007,356.562a5.558,5.558,0,0,1-5.547,5.547,5.628,5.628,0,0,1-5.628-5.547v-.482a5.4,5.4,0,0,1-2.251.482,5.558,5.558,0,0,1-5.547-5.547,5.711,5.711,0,0,1,2.733-4.824,5.563,5.563,0,0,1-.482-11.095,5.634,5.634,0,0,1-2.251-4.5,5.558,5.558,0,0,1,5.547-5.547,5.135,5.135,0,0,1,2.251.482v-.482a5.588,5.588,0,0,1,11.175,0Z" transform="translate(-480.3 -319.5)" fill="#fff" stroke="#1d1d1b" stroke-miterlimit="10" stroke-width="3"/>
          <path id="Path_3401" data-name="Path 3401" d="M498.767,331.567A5.472,5.472,0,0,1,493.3,326.1" transform="translate(-482.849 -320.794)" fill="#fff" stroke="#1d1d1b" stroke-miterlimit="10" stroke-width="3"/>
          <path id="Path_3402" data-name="Path 3402" d="M486.3,353a5.374,5.374,0,0,1,7.477,1.769" transform="translate(-481.476 -325.905)" fill="#fff" stroke="#1d1d1b" stroke-miterlimit="10" stroke-width="3"/>
          <path id="Path_3403" data-name="Path 3403" d="M500.8,344.228a5.461,5.461,0,0,1,5.226-5.628" transform="translate(-484.318 -323.245)" fill="#fff" stroke="#1d1d1b" stroke-miterlimit="10" stroke-width="3"/>
          <path id="Path_3404" data-name="Path 3404" d="M500.3,359.3a5.461,5.461,0,0,1,5.628,5.226" transform="translate(-484.221 -327.302)" fill="#fff" stroke="#1d1d1b" stroke-miterlimit="10" stroke-width="3"/>
          <path id="Path_3405" data-name="Path 3405" d="M486.1,338.4a5.441,5.441,0,0,0,5.145,1.528" transform="translate(-481.437 -323.205)" fill="#fff" stroke="#1d1d1b" stroke-miterlimit="10" stroke-width="3"/>
        </g>
        <g id="Group_806" data-name="Group 806" transform="translate(25.083)">
          <path id="Path_3406" data-name="Path 3406" d="M511.5,324.647a5.547,5.547,0,1,1,11.095,0v.482a5.4,5.4,0,0,1,2.251-.482,5.558,5.558,0,0,1,5.547,5.547,5.711,5.711,0,0,1-2.733,4.824,5.563,5.563,0,0,1,.482,11.095,5.634,5.634,0,0,1,2.251,4.5,5.558,5.558,0,0,1-5.547,5.547,5.136,5.136,0,0,1-2.251-.482v.482a5.547,5.547,0,0,1-11.095,0V324.647Z" transform="translate(-511.5 -319.1)" fill="#fff" stroke="#1d1d1b" stroke-miterlimit="10" stroke-width="3"/>
          <path id="Path_3407" data-name="Path 3407" d="M518.7,358.6a5.472,5.472,0,0,1,5.467,5.467" transform="translate(-512.911 -326.844)" fill="#fff" stroke="#1d1d1b" stroke-miterlimit="10" stroke-width="3"/>
          <path id="Path_3408" data-name="Path 3408" d="M530.677,337.969A5.374,5.374,0,0,1,523.2,336.2" transform="translate(-513.794 -322.452)" fill="#fff" stroke="#1d1d1b" stroke-miterlimit="10" stroke-width="3"/>
          <path id="Path_3409" data-name="Path 3409" d="M516.726,346a5.461,5.461,0,0,1-5.226,5.628" transform="translate(-511.5 -324.374)" fill="#fff" stroke="#1d1d1b" stroke-miterlimit="10" stroke-width="3"/>
          <path id="Path_3410" data-name="Path 3410" d="M517.128,330.926A5.461,5.461,0,0,1,511.5,325.7" transform="translate(-511.5 -320.394)" fill="#fff" stroke="#1d1d1b" stroke-miterlimit="10" stroke-width="3"/>
          <path id="Path_3411" data-name="Path 3411" d="M531.445,352.694a5.441,5.441,0,0,0-5.145-1.527" transform="translate(-514.401 -325.36)" fill="#fff" stroke="#1d1d1b" stroke-miterlimit="10" stroke-width="3"/>
        </g>
      </g>
    </g>
    <g id="Group_815" data-name="Group 815" transform="translate(92.124 124.196)">
      <line id="Line_42" data-name="Line 42" x2="37.625" transform="translate(253.875 170.984)" fill="none" stroke="#1d1d1b" stroke-miterlimit="10" stroke-width="3"/>
      <line id="Line_43" data-name="Line 43" x2="37.705" transform="translate(38.509 152.746)" fill="none" stroke="#1d1d1b" stroke-miterlimit="10" stroke-width="3"/>
      <g id="Group_809" data-name="Group 809" transform="translate(189.58 50.086)">
        <line id="Line_44" data-name="Line 44" x2="20.179" fill="none" stroke="#1d1d1b" stroke-miterlimit="10" stroke-width="3"/>
        <line id="Line_45" data-name="Line 45" x2="20.179" transform="translate(25.646)" fill="none" stroke="#1d1d1b" stroke-miterlimit="10" stroke-width="3"/>
      </g>
      <g id="Group_810" data-name="Group 810" transform="translate(0 356.751)">
        <line id="Line_46" data-name="Line 46" x2="12.381" fill="none" stroke="#1d1d1b" stroke-miterlimit="10" stroke-width="3"/>
        <line id="Line_47" data-name="Line 47" x2="12.381" transform="translate(15.195)" fill="none" stroke="#1d1d1b" stroke-miterlimit="10" stroke-width="3"/>
        <line id="Line_48" data-name="Line 48" x2="12.381" transform="translate(30.389)" fill="none" stroke="#1d1d1b" stroke-miterlimit="10" stroke-width="3"/>
      </g>
      <path id="Path_3412" data-name="Path 3412" d="M411.03,239.365a5.065,5.065,0,1,1-5.065-5.065A5.148,5.148,0,0,1,411.03,239.365Z" transform="translate(-179.399 -126.232)" fill="none" stroke="#1d1d1b" stroke-miterlimit="10" stroke-width="3"/>
      <path id="Path_3413" data-name="Path 3413" d="M214.33,197.065A5.065,5.065,0,1,1,209.265,192,5.1,5.1,0,0,1,214.33,197.065Z" transform="translate(-125.268 -126.141)" fill="none" stroke="#1d1d1b" stroke-miterlimit="10" stroke-width="3"/>
      <path id="Path_3414" data-name="Path 3414" d="M424.83,396.865a5.065,5.065,0,1,1-5.065-5.065A5.044,5.044,0,0,1,424.83,396.865Z" transform="translate(-183.197 -126.57)" fill="none" stroke="#1d1d1b" stroke-miterlimit="10" stroke-width="3"/>
      <path id="Path_3415" data-name="Path 3415" d="M182.33,389.065A5.065,5.065,0,1,1,177.265,384,5.2,5.2,0,0,1,182.33,389.065Z" transform="translate(-116.462 -126.553)" fill="none" stroke="#1d1d1b" stroke-miterlimit="10" stroke-width="3"/>
      <g id="Group_811" data-name="Group 811" transform="translate(255.644 5.386)">
        <line id="Line_49" data-name="Line 49" x2="8.924" y2="9.487" fill="none" stroke="#1d1d1b" stroke-miterlimit="10" stroke-width="3"/>
        <line id="Line_50" data-name="Line 50" x1="8.924" y2="9.487" fill="none" stroke="#1d1d1b" stroke-miterlimit="10" stroke-width="3"/>
      </g>
      <g id="Group_812" data-name="Group 812" transform="translate(60.404 354.982)">
        <line id="Line_51" data-name="Line 51" x2="8.843" y2="9.487" fill="none" stroke="#1d1d1b" stroke-miterlimit="10" stroke-width="3"/>
        <line id="Line_52" data-name="Line 52" x1="8.843" y2="9.487" fill="none" stroke="#1d1d1b" stroke-miterlimit="10" stroke-width="3"/>
      </g>
      <g id="Group_813" data-name="Group 813" transform="translate(51.774)">
        <line id="Line_53" data-name="Line 53" x2="8.843" y2="9.487" fill="none" stroke="#1d1d1b" stroke-miterlimit="10" stroke-width="3"/>
        <line id="Line_54" data-name="Line 54" x1="8.843" y2="9.487" fill="none" stroke="#1d1d1b" stroke-miterlimit="10" stroke-width="3"/>
      </g>
      <g id="Group_814" data-name="Group 814" transform="translate(269.15 344.772)">
        <line id="Line_55" data-name="Line 55" x2="8.924" y2="9.487" fill="none" stroke="#1d1d1b" stroke-miterlimit="10" stroke-width="3"/>
        <line id="Line_56" data-name="Line 56" x1="8.924" y2="9.487" fill="none" stroke="#1d1d1b" stroke-miterlimit="10" stroke-width="3"/>
      </g>
    </g>
    <g id="Group_820" data-name="Group 820" transform="translate(165.347 196.541)">
      <g id="Group_816" data-name="Group 816" transform="translate(57.563)">
        <path id="Path_3416" data-name="Path 3416" d="M380.928,221.714a6.914,6.914,0,1,1-6.914-6.914A7.019,7.019,0,0,1,380.928,221.714Z" transform="translate(-294.583 -190.36)" fill="none" stroke="#1d1d1b" stroke-miterlimit="10" stroke-width="3"/>
        <path id="Path_3417" data-name="Path 3417" d="M352.128,195.514a6.914,6.914,0,1,1-6.914-6.914A6.914,6.914,0,0,1,352.128,195.514Z" transform="translate(-288.937 -185.223)" fill="none" stroke="#1d1d1b" stroke-miterlimit="10" stroke-width="3"/>
        <path id="Path_3418" data-name="Path 3418" d="M328.928,250.414a6.914,6.914,0,1,1-6.914-6.914A6.914,6.914,0,0,1,328.928,250.414Z" transform="translate(-284.389 -195.986)" fill="none" stroke="#1d1d1b" stroke-miterlimit="10" stroke-width="3"/>
        <line id="Line_57" data-name="Line 57" y1="0.402" x2="56.759" transform="translate(17.687 31.354)" fill="none" stroke="#1d1d1b" stroke-miterlimit="10" stroke-width="3"/>
        <line id="Line_58" data-name="Line 58" y2="47.514" transform="translate(37.705)" fill="none" stroke="#1d1d1b" stroke-miterlimit="10" stroke-width="3"/>
        <line id="Line_59" data-name="Line 59" y1="42.047" transform="translate(56.277 16.561)" fill="none" stroke="#1d1d1b" stroke-miterlimit="10" stroke-width="3"/>
        <line id="Line_60" data-name="Line 60" x2="30.791" transform="translate(0 54.428)" fill="none" stroke="#1d1d1b" stroke-miterlimit="10" stroke-width="3"/>
      </g>
      <g id="Group_817" data-name="Group 817" transform="translate(0 83.691)">
        <path id="Path_3419" data-name="Path 3419" d="M205.3,325.914A6.914,6.914,0,1,0,212.214,319,6.914,6.914,0,0,0,205.3,325.914Z" transform="translate(-205.3 -294.479)" fill="none" stroke="#1d1d1b" stroke-miterlimit="10" stroke-width="3"/>
        <path id="Path_3420" data-name="Path 3420" d="M234,299.714a6.914,6.914,0,1,0,6.914-6.914A6.914,6.914,0,0,0,234,299.714Z" transform="translate(-210.927 -289.343)" fill="none" stroke="#1d1d1b" stroke-miterlimit="10" stroke-width="3"/>
        <path id="Path_3421" data-name="Path 3421" d="M281.2,325.014a6.914,6.914,0,1,0,6.914-6.914A6.914,6.914,0,0,0,281.2,325.014Z" transform="translate(-220.18 -294.303)" fill="none" stroke="#1d1d1b" stroke-miterlimit="10" stroke-width="3"/>
        <path id="Path_3422" data-name="Path 3422" d="M257.2,354.514a6.914,6.914,0,1,0,6.914-6.914A6.914,6.914,0,0,0,257.2,354.514Z" transform="translate(-215.475 -300.086)" fill="none" stroke="#1d1d1b" stroke-miterlimit="10" stroke-width="3"/>
        <line id="Line_61" data-name="Line 61" x1="49.443" y1="0.402" transform="translate(11.818 31.435)" fill="none" stroke="#1d1d1b" stroke-miterlimit="10" stroke-width="3"/>
        <line id="Line_62" data-name="Line 62" y2="47.594" transform="translate(48.639)" fill="none" stroke="#1d1d1b" stroke-miterlimit="10" stroke-width="3"/>
        <line id="Line_63" data-name="Line 63" y1="42.047" transform="translate(29.987 16.561)" fill="none" stroke="#1d1d1b" stroke-miterlimit="10" stroke-width="3"/>
        <line id="Line_64" data-name="Line 64" x1="34.329" transform="translate(55.473 54.428)" fill="none" stroke="#1d1d1b" stroke-miterlimit="10" stroke-width="3"/>
      </g>
      <path id="Path_3423" data-name="Path 3423" d="M394.091,271.69c.08-.884.161-1.849.161-2.814s-.08-1.849-.161-2.814c-11.979-2.814-13.828-7.236-7.316-17.607A27.965,27.965,0,0,0,383,244.677c-10.371,6.512-14.793,4.663-17.607-7.316-.884-.08-1.849-.161-2.814-.161s-1.849.08-2.814.161c-2.814,11.979-7.236,13.828-17.607,7.316a27.969,27.969,0,0,0-3.779,3.779c6.512,10.371,4.663,14.793-7.316,17.607-.08.884-.161,1.849-.161,2.814s.08,1.849.161,2.814c11.979,2.814,13.828,7.236,7.316,17.607a27.969,27.969,0,0,0,3.779,3.779c10.371-6.512,14.793-4.663,17.607,7.316.884.08,1.849.161,2.814.161s1.849-.08,2.814-.161c2.814-11.979,7.236-13.828,17.607-7.316a27.967,27.967,0,0,0,3.779-3.779C380.263,278.925,382.112,274.5,394.091,271.69Zm-31.515,10.371a13.185,13.185,0,1,1,13.185-13.185A13.192,13.192,0,0,1,362.576,282.061Z" transform="translate(-229.924 -194.751)" fill="#6301f7" stroke="#1d1d1b" stroke-miterlimit="10" stroke-width="3"/>
      <g id="Group_818" data-name="Group 818" transform="translate(3.859 10.451)">
        <path id="Path_3424" data-name="Path 3424" d="M285.591,237.356a29.349,29.349,0,0,0,0-4.341c-8.843-3.618-9.969-7.718-4.1-15.195-.643-1.206-1.286-2.331-2.01-3.457-9.406,1.447-12.3-1.447-10.773-10.773a29.745,29.745,0,0,0-3.457-2.01c-7.477,5.869-11.5,4.743-15.195-4.1-.724,0-1.447-.08-2.171-.08a19.59,19.59,0,0,0-2.171.08c-3.618,8.843-7.718,9.969-15.195,4.1-1.206.643-2.331,1.286-3.457,2.01,1.447,9.406-1.447,12.3-10.773,10.773a29.742,29.742,0,0,0-2.01,3.457c5.869,7.477,4.743,11.5-4.1,15.195,0,.724-.08,1.447-.08,2.171a19.587,19.587,0,0,0,.08,2.171c8.843,3.618,9.969,7.718,4.1,15.195.643,1.206,1.286,2.331,2.01,3.457,9.406-1.447,12.3,1.447,10.773,10.773a29.746,29.746,0,0,0,3.457,2.01c7.477-5.869,11.5-4.743,15.195,4.1.724,0,1.447.08,2.171.08a19.6,19.6,0,0,0,2.171-.08c3.618-8.843,7.718-9.969,15.195-4.1,1.206-.643,2.331-1.286,3.457-2.01-1.447-9.406,1.447-12.3,10.773-10.773a29.743,29.743,0,0,0,2.01-3.457C275.622,245.074,276.748,240.974,285.591,237.356Zm-37.786,14.632a16.722,16.722,0,1,1,16.722-16.722A16.709,16.709,0,0,1,247.805,251.988Z" transform="translate(-210.1 -197.4)" fill="#07d9c9" stroke="#1d1d1b" stroke-miterlimit="10" stroke-width="3"/>
        <path id="Path_3425" data-name="Path 3425" d="M274.061,238.93a22.43,22.43,0,1,1-22.43-22.43A22.439,22.439,0,0,1,274.061,238.93Z" transform="translate(-213.845 -201.145)" fill="none" stroke="#1d1d1b" stroke-miterlimit="10" stroke-width="3"/>
      </g>
      <g id="Group_819" data-name="Group 819" transform="translate(82.486 101.137)">
        <path id="Path_3426" data-name="Path 3426" d="M362.328,338.981c0-.482.08-1.045.08-1.527a9.727,9.727,0,0,0-.08-1.527c-6.432-2.653-7.236-5.547-2.975-10.934-.482-.884-.965-1.688-1.447-2.492-6.753,1.045-8.843-1.045-7.8-7.8a19.927,19.927,0,0,0-2.492-1.447c-5.386,4.261-8.361,3.377-10.934-2.975-.482,0-1.045-.08-1.527-.08a9.233,9.233,0,0,0-1.528.08c-2.653,6.432-5.547,7.236-10.934,2.975-.884.482-1.688.965-2.492,1.447,1.045,6.753-1.045,8.843-7.8,7.8a19.926,19.926,0,0,0-1.447,2.492c4.261,5.387,3.377,8.361-2.975,10.934,0,.482-.08,1.045-.08,1.527a9.731,9.731,0,0,0,.08,1.527c6.432,2.653,7.236,5.547,2.975,10.934.482.884.965,1.688,1.447,2.492,6.753-1.045,8.843,1.045,7.8,7.8a19.927,19.927,0,0,0,2.492,1.447c5.386-4.261,8.361-3.377,10.934,2.975.482,0,1.045.08,1.528.08a9.727,9.727,0,0,0,1.527-.08c2.653-6.432,5.547-7.236,10.934-2.975.884-.482,1.688-.965,2.492-1.447-1.045-6.753,1.045-8.843,7.8-7.8a19.926,19.926,0,0,0,1.447-2.492C355.092,344.609,355.9,341.635,362.328,338.981Zm-27.254,10.612a12.14,12.14,0,1,1,12.14-12.14A12.129,12.129,0,0,1,335.074,349.594Z" transform="translate(-307.9 -310.2)" fill="#59509d" stroke="#1d1d1b" stroke-miterlimit="10" stroke-width="3"/>
        <path id="Path_3427" data-name="Path 3427" d="M353.88,340.14a16.24,16.24,0,1,1-16.24-16.24A16.246,16.246,0,0,1,353.88,340.14Z" transform="translate(-310.547 -312.886)" fill="none" stroke="#1d1d1b" stroke-miterlimit="10" stroke-width="3"/>
      </g>
    </g>
    <g id="Group_823" data-name="Group 823" transform="translate(166.712 332.216)">
      <g id="Group_821" data-name="Group 821" transform="translate(0 1.126)">
        <path id="Path_3428" data-name="Path 3428" d="M283.013,430.017a19.456,19.456,0,1,1-38.911,0c0-.563.08-1.126.08-1.688a18.848,18.848,0,0,1-7.959,1.688,19.435,19.435,0,0,1-9.889-36.178,19.47,19.47,0,0,1-1.688-38.831A19.469,19.469,0,0,1,236.3,319.956a20.157,20.157,0,0,1,7.959,1.688,11.871,11.871,0,0,1-.08-1.688,19.456,19.456,0,0,1,38.911,0V430.017Z" transform="translate(-207.2 -300.5)" fill="#f6a3ee" stroke="#1d1d1b" stroke-miterlimit="10" stroke-width="3"/>
        <path id="Path_3429" data-name="Path 3429" d="M271.873,342.873A19.008,19.008,0,0,1,252.9,323.9" transform="translate(-216.159 -305.087)" fill="none" stroke="#1d1d1b" stroke-miterlimit="10" stroke-width="3"/>
        <path id="Path_3430" data-name="Path 3430" d="M228.2,417.5a19.009,19.009,0,0,1,26.128,6.11" transform="translate(-211.317 -322.879)" fill="none" stroke="#1d1d1b" stroke-miterlimit="10" stroke-width="3"/>
        <path id="Path_3431" data-name="Path 3431" d="M278.8,387a19.022,19.022,0,0,1,18.25-19.7" transform="translate(-221.234 -313.596)" fill="none" stroke="#1d1d1b" stroke-miterlimit="10" stroke-width="3"/>
        <path id="Path_3432" data-name="Path 3432" d="M277,439.7a18.968,18.968,0,0,1,19.7,18.25" transform="translate(-220.884 -327.786)" fill="none" stroke="#1d1d1b" stroke-miterlimit="10" stroke-width="3"/>
        <path id="Path_3433" data-name="Path 3433" d="M227.6,366.9a18.991,18.991,0,0,0,17.928,5.387" transform="translate(-211.199 -313.518)" fill="none" stroke="#1d1d1b" stroke-miterlimit="10" stroke-width="3"/>
      </g>
      <g id="Group_822" data-name="Group 822" transform="translate(87.631)">
        <path id="Path_3434" data-name="Path 3434" d="M316.2,318.556a19.456,19.456,0,0,1,38.911,0,11.875,11.875,0,0,1-.08,1.688,18.848,18.848,0,0,1,7.959-1.688,19.435,19.435,0,0,1,9.889,36.178,19.47,19.47,0,0,1,1.688,38.831,19.429,19.429,0,0,1-11.577,35.052,20.157,20.157,0,0,1-7.959-1.688,11.875,11.875,0,0,1,.08,1.688,19.456,19.456,0,1,1-38.911,0V318.556Z" transform="translate(-316.2 -299.1)" fill="#f6a3ee" stroke="#1d1d1b" stroke-miterlimit="10" stroke-width="3"/>
        <path id="Path_3435" data-name="Path 3435" d="M341.2,437.3a19.008,19.008,0,0,1,18.973,18.973" transform="translate(-321.101 -326.194)" fill="none" stroke="#1d1d1b" stroke-miterlimit="10" stroke-width="3"/>
        <path id="Path_3436" data-name="Path 3436" d="M383.128,365.21A19.009,19.009,0,0,1,357,359.1" transform="translate(-324.199 -310.863)" fill="none" stroke="#1d1d1b" stroke-miterlimit="10" stroke-width="3"/>
        <path id="Path_3437" data-name="Path 3437" d="M334.45,393.1a19.022,19.022,0,0,1-18.25,19.7" transform="translate(-316.2 -317.528)" fill="none" stroke="#1d1d1b" stroke-miterlimit="10" stroke-width="3"/>
        <path id="Path_3438" data-name="Path 3438" d="M335.9,340.75a18.968,18.968,0,0,1-19.7-18.25" transform="translate(-316.2 -303.688)" fill="none" stroke="#1d1d1b" stroke-miterlimit="10" stroke-width="3"/>
        <path id="Path_3439" data-name="Path 3439" d="M385.728,416.57a18.991,18.991,0,0,0-17.928-5.387" transform="translate(-326.316 -320.98)" fill="none" stroke="#1d1d1b" stroke-miterlimit="10" stroke-width="3"/>
      </g>
    </g>
  </g>
</svg>
